<?xml version="1.0" encoding="utf-8"?><!-- Uploaded to: SVG Repo, www.svgrepo.com, Generator: SVG Repo Mixer Tools -->
<svg width="800px" height="800px" viewBox="0 0 24 24" fill="none" xmlns="http://www.w3.org/2000/svg">
<path d="M3 11H8M5.5 13.5V8.5M14.5 14C18.2966 14 20.2305 15.3374 20.8093 18.0121C21.0429 19.0917 20.1046 20 19 20H10C8.89543 20 7.95709 19.0917 8.19071 18.0121C8.76953 15.3374 10.7034 14 14.5 14ZM14.5 10C16.1667 10 17 9.14286 17 7C17 4.85714 16.1667 4 14.5 4C12.8333 4 12 4.85714 12 7C12 9.14286 12.8333 10 14.5 10Z" stroke="#000000" stroke-width="2" stroke-linecap="round" stroke-linejoin="round"/>
</svg>