<svg width="51" height="51" viewBox="0 0 51 51" fill="none" xmlns="http://www.w3.org/2000/svg">
<g clip-path="url(#clip0_673_1628)">
<path d="M46.1668 32.168L40.7311 24.3781V22.2744V21.1169V10.6611C40.7311 9.98187 40.4659 9.34322 39.9858 8.86405L32.6238 1.50136C32.1437 1.02138 31.5045 0.757812 30.8275 0.757812H8.67153C6.28475 0.757812 4.34384 2.69954 4.34384 5.0855V44.1101C4.34384 46.4959 6.28485 48.4377 8.67153 48.4377H24.8957H28.9403C29.134 48.6964 29.339 48.9469 29.575 49.1715C30.5968 50.1485 31.9731 50.7578 33.496 50.7578C36.2391 50.7578 33.369 50.7578 36.9956 50.7578C38.5167 50.7578 39.8964 50.1486 40.9183 49.1715C42.1091 48.0351 42.685 46.5414 42.685 45.0683V40.9885C44.3365 40.6404 45.7519 39.5763 46.5459 38.0543C47.5299 36.1688 47.3853 33.913 46.1668 32.168ZM18.0917 43.0093H9.67213V6.18621H27.5639V10.9475C27.5639 12.6437 28.9436 14.0241 30.6405 14.0241H35.4026V20.7841H35.3766V20.7881C33.5755 20.7458 31.7583 21.53 30.5968 23.1773L24.3247 32.1679C23.1062 33.9129 22.9613 36.1687 23.9456 38.0543C24.7395 39.5763 26.1548 40.6404 27.8065 40.9885V43.0092H26.7585L18.0917 43.0093ZM42.5564 35.9719C42.3497 36.3657 41.9464 36.6106 41.5037 36.6106H41.502H38.1845V45.0684C38.1845 45.7239 37.651 46.2561 36.9971 46.2561H36.9954H33.4959H33.4942C32.84 46.2561 32.3065 45.7239 32.3065 45.0684V36.6106H28.9891H28.9874C28.5448 36.6106 28.1413 36.3657 27.9348 35.9719C27.7299 35.5782 27.7591 35.1073 28.0145 34.7427L34.2701 25.7741C34.493 25.456 34.8576 25.2665 35.2447 25.2665H35.2465C35.6337 25.2665 35.9981 25.456 36.2209 25.7741L42.4768 34.7427C42.732 35.1072 42.7613 35.5782 42.5564 35.9719Z" fill="#CC6666"/>
<path d="M46.1668 32.168L40.7311 24.3781V22.2744V21.1169V10.6611C40.7311 9.98187 40.4659 9.34322 39.9858 8.86405L32.6238 1.50136C32.1437 1.02138 31.5045 0.757812 30.8275 0.757812H8.67153C6.28475 0.757812 4.34384 2.69954 4.34384 5.0855V44.1101C4.34384 46.4959 6.28485 48.4377 8.67153 48.4377H24.8957H28.9403C29.134 48.6964 29.339 48.9469 29.575 49.1715C30.5968 50.1485 31.9731 50.7578 33.496 50.7578C36.2391 50.7578 33.369 50.7578 36.9956 50.7578C38.5167 50.7578 39.8964 50.1486 40.9183 49.1715C42.1091 48.0351 42.685 46.5414 42.685 45.0683V40.9885C44.3365 40.6404 45.7519 39.5763 46.5459 38.0543C47.5299 36.1688 47.3853 33.913 46.1668 32.168ZM18.0917 43.0093H9.67213V6.18621H27.5639V10.9475C27.5639 12.6437 28.9436 14.0241 30.6405 14.0241H35.4026V20.7841H35.3766V20.7881C33.5755 20.7458 31.7583 21.53 30.5968 23.1773L24.3247 32.1679C23.1062 33.9129 22.9613 36.1687 23.9456 38.0543C24.7395 39.5763 26.1548 40.6404 27.8065 40.9885V43.0092H26.7585L18.0917 43.0093ZM42.5564 35.9719C42.3497 36.3657 41.9464 36.6106 41.5037 36.6106H41.502H38.1845V45.0684C38.1845 45.7239 37.651 46.2561 36.9971 46.2561H36.9954H33.4959H33.4942C32.84 46.2561 32.3065 45.7239 32.3065 45.0684V36.6106H28.9891H28.9874C28.5448 36.6106 28.1413 36.3657 27.9348 35.9719C27.7299 35.5782 27.7591 35.1073 28.0145 34.7427L34.2701 25.7741C34.493 25.456 34.8576 25.2665 35.2447 25.2665H35.2465C35.6337 25.2665 35.9981 25.456 36.2209 25.7741L42.4768 34.7427C42.732 35.1072 42.7613 35.5782 42.5564 35.9719Z" fill="black" fill-opacity="0.2"/>
</g>
<defs>
<clipPath id="clip0_673_1628">
<rect width="50" height="50" fill="white" transform="translate(0.768875 0.757812)"/>
</clipPath>
</defs>
</svg>
