<svg width="700" height="700" viewBox="0 0 800 800" fill="none" xmlns="http://www.w3.org/2000/svg">
<g clip-path="url(#clip0_19_76)">
<path d="M3.5717 650.368H60.07H142.681L232.98 650.356H312.315H362.213H365.304C370.063 650.356 370.07 642.962 365.304 642.962H320.29H243.55L153.589 642.973L69.0529 642.984H8.33582H3.5717C-1.18687 642.984 -1.19426 650.379 3.5717 650.379V650.368Z" fill="#211715"/>
<path d="M462.317 480.342C446.714 480.342 431.11 480.374 415.504 480.438C388.883 480.511 362.261 480.589 335.64 480.671C303.842 480.767 272.039 480.862 240.23 480.956C208.754 481.046 177.277 481.13 145.8 481.207C120.516 481.266 95.2324 481.31 69.9495 481.339H62.8135C58.055 481.339 58.0476 488.733 62.8135 488.733C86.97 488.725 111.13 488.687 135.294 488.621C166.334 488.552 197.373 488.471 228.411 488.378C260.466 488.287 292.52 488.192 324.576 488.094C352.14 488.011 379.703 487.93 407.266 487.85C424.499 487.802 441.729 487.763 458.958 487.733H462.319C467.078 487.733 467.085 480.338 462.319 480.338L462.317 480.342Z" fill="#211715"/>
<path d="M345.523 604.361C336.439 604.361 327.352 604.326 318.268 604.307L261.189 604.181C240.275 604.137 219.361 604.093 198.448 604.05C183.434 604.02 168.421 603.994 153.409 603.971C151.535 603.971 149.649 604.026 147.776 603.971C144.48 603.869 144.417 601.567 144.724 598.718C145.203 596.964 146.019 595.32 147.127 593.878C152.972 583.786 158.821 573.696 164.674 563.61C165.97 561.376 167.264 559.143 168.556 556.91C169.142 555.9 170.345 552.878 171.203 552.423C171.724 552.301 172.265 552.282 172.793 552.369H368.423C373.182 552.369 373.189 544.975 368.423 544.975H175.135C170.728 544.975 166.973 545.006 164.293 549.509C158.503 559.236 152.932 569.106 147.255 578.893C144.667 583.346 142.086 587.801 139.513 592.257C139.074 593.013 138.612 593.76 138.219 594.544C137.429 596.47 137.112 598.557 137.294 600.63C137.331 604.431 138.435 607.816 141.857 609.873C144.815 611.648 148.327 611.369 151.624 611.371L159.477 611.382L181.761 611.419C202.204 611.457 222.648 611.499 243.092 611.545L305.064 611.68C317.647 611.708 330.229 611.735 342.811 611.759H345.503C350.261 611.759 350.269 604.364 345.503 604.364L345.523 604.361Z" fill="#211715"/>
<path d="M170.417 588.393C176.171 578.431 181.97 568.496 187.723 558.533C190.108 554.405 183.721 550.676 181.338 554.801C175.585 564.763 169.785 574.7 164.032 584.663C161.649 588.791 168.036 592.518 170.417 588.393Z" fill="#211715"/>
<path d="M189.051 587.657C194.325 578.523 199.642 569.414 204.918 560.28C207.301 556.152 200.914 552.423 198.533 556.547C193.256 565.682 187.939 574.79 182.665 583.927C180.28 588.055 186.668 591.782 189.051 587.657Z" fill="#211715"/>
<path d="M206.042 587.658C208.488 583.42 210.956 579.192 213.404 574.955C213.899 574.108 214.037 573.1 213.788 572.151C213.539 571.202 212.924 570.391 212.077 569.896C211.23 569.401 210.222 569.263 209.273 569.512C208.324 569.76 207.513 570.376 207.018 571.223C204.57 575.462 202.104 579.688 199.657 583.927C199.412 584.346 199.252 584.81 199.186 585.291C199.12 585.772 199.149 586.261 199.273 586.731C199.396 587.2 199.611 587.641 199.904 588.028C200.198 588.415 200.565 588.74 200.984 588.985C201.403 589.23 201.867 589.39 202.348 589.456C202.829 589.522 203.318 589.492 203.788 589.369C204.258 589.246 204.698 589.031 205.085 588.737C205.472 588.444 205.797 588.077 206.042 587.658Z" fill="#211715"/>
<path d="M222.908 587.658C225.355 583.42 227.822 579.192 230.269 574.955C230.764 574.108 230.903 573.1 230.654 572.151C230.405 571.202 229.79 570.391 228.943 569.896C228.096 569.401 227.087 569.263 226.139 569.512C225.19 569.76 224.379 570.376 223.884 571.223C221.436 575.462 218.97 579.688 216.522 583.927C216.277 584.346 216.117 584.81 216.052 585.291C215.986 585.772 216.015 586.261 216.138 586.731C216.262 587.2 216.476 587.641 216.77 588.028C217.064 588.415 217.43 588.74 217.85 588.985C218.269 589.23 218.732 589.39 219.214 589.456C219.695 589.522 220.184 589.492 220.654 589.369C221.123 589.246 221.564 589.031 221.951 588.737C222.338 588.444 222.663 588.077 222.908 587.658Z" fill="#211715"/>
<path d="M239.524 587.658C241.972 583.42 244.438 579.192 246.886 574.955C247.374 574.109 247.508 573.104 247.258 572.159C247.008 571.214 246.394 570.407 245.55 569.914C244.707 569.42 243.702 569.281 242.756 569.526C241.81 569.772 241 570.381 240.502 571.223C238.054 575.462 235.586 579.688 233.139 583.927C232.894 584.346 232.734 584.81 232.668 585.291C232.602 585.772 232.631 586.261 232.755 586.731C232.878 587.201 233.092 587.641 233.386 588.028C233.68 588.415 234.047 588.74 234.466 588.985C234.885 589.23 235.349 589.39 235.83 589.456C236.311 589.522 236.8 589.492 237.27 589.369C237.74 589.246 238.18 589.031 238.567 588.737C238.954 588.444 239.279 588.077 239.524 587.658Z" fill="#211715"/>
<path d="M265.45 558.984H174.285C169.526 558.984 169.519 566.379 174.285 566.379H265.45C270.209 566.379 270.216 558.984 265.45 558.984Z" fill="#211715"/>
<path d="M291.003 574.042C256.883 573.979 222.764 573.89 188.646 573.776C181.193 573.755 173.741 573.737 166.289 573.722C161.531 573.722 161.523 581.117 166.289 581.117C200.305 581.18 234.327 581.268 268.353 581.383C275.903 581.403 283.453 581.421 291.003 581.437C295.762 581.437 295.769 574.042 291.003 574.042Z" fill="#211715"/>
<path d="M307.647 598.815H307.667V591.42C292.427 591.479 277.184 591.42 261.945 591.42H154.41C149.651 591.42 149.644 598.815 154.41 598.815H291.06C296.595 598.815 302.132 598.837 307.667 598.815C312.424 598.796 312.433 591.434 307.667 591.42H307.647C302.888 591.42 302.881 598.815 307.647 598.815Z" fill="#211715"/>
<path d="M668.339 114.372C668.339 127.287 668.823 140.198 668.829 153.114C668.829 159.229 668.709 165.343 668.378 171.449C668.209 174.53 667.988 177.611 667.716 180.693C667.559 182.443 667.315 184.194 667.195 185.945C667.139 186.769 667.344 185.168 667.119 186.444C664.53 201.049 660.441 215.385 657.302 229.877C655.823 236.747 653.908 244.003 653.858 251.077C653.825 255.835 661.219 255.841 661.253 251.077C661.285 248.707 661.545 246.347 662.029 244.027C662.626 240.461 663.349 236.917 664.103 233.381C665.86 225.139 667.819 216.942 669.757 208.741C671.271 202.337 672.9 195.93 674.07 189.448C675.687 178.725 676.403 167.885 676.209 157.042C676.333 142.818 675.741 128.598 675.734 114.374C675.734 109.615 668.339 109.606 668.339 114.374V114.372Z" fill="#D9D9D9"/>
<path d="M619.47 272.899C617.486 271.605 617.945 267.916 617.96 265.935C617.797 262.943 617.997 259.943 618.555 257C618.705 256.214 619.007 255.466 619.444 254.796C619.672 254.436 619.433 254.763 619.381 254.829C619.521 254.654 619.672 254.489 619.834 254.336C619.938 254.236 620.369 253.898 619.834 254.293C620.006 254.167 620.186 254.053 620.374 253.953C620.901 253.674 620.027 253.999 620.821 253.753C621.191 253.637 621.579 253.545 621.966 253.465C622.681 253.319 622.199 253.426 622.038 253.445C622.28 253.417 622.533 253.395 622.777 253.384C623.299 253.363 623.816 253.343 624.34 253.341C630.18 253.341 636.014 253.785 641.863 253.755C645.873 253.735 649.881 253.668 653.88 253.62C654.309 253.62 655.677 253.393 656.001 253.639C656.065 253.689 655.864 253.578 655.858 253.57C655.99 254.633 655.987 255.709 655.847 256.771C655.947 263.084 656.032 269.399 656.032 275.714L659.729 272.017C653.298 272.052 646.842 272.695 640.421 273.028C636.861 273.213 633.298 273.398 629.734 273.442C628.024 273.464 626.31 273.503 624.6 273.487C622.867 273.635 621.121 273.435 619.466 272.899C615.187 270.878 611.428 277.252 615.734 279.284C619.655 281.133 624.053 280.885 628.294 280.848C631.943 280.815 635.589 280.663 639.235 280.478C646.053 280.136 652.902 279.443 659.729 279.406C660.705 279.392 661.638 278.998 662.328 278.307C663.018 277.617 663.412 276.685 663.427 275.709C663.427 268.909 663.336 262.11 663.218 255.312C663.151 251.522 662.264 247.869 658.213 246.599C656.281 246.172 654.293 246.051 652.323 246.24C649.776 246.272 647.23 246.309 644.685 246.333C640.216 246.375 635.742 246.401 631.276 246.233C628.573 246.133 625.854 245.839 623.142 245.965C617.475 246.225 613.179 248.958 611.539 254.569C610.571 258.852 610.24 263.255 610.557 267.635C610.63 272.244 611.643 276.627 615.734 279.284C619.742 281.885 623.452 275.476 619.47 272.899Z" fill="#D9D9D9"/>
<path d="M612.909 330.181C617.143 313.027 621.587 295.897 625.262 278.611C626.249 273.969 619.123 271.985 618.132 276.644C614.456 293.93 610.012 311.06 605.779 328.223C604.638 332.845 611.768 334.814 612.909 330.188V330.181Z" fill="#D9D9D9"/>
<path d="M654.601 276.432C654.797 283.185 655.395 289.92 656.391 296.603C657.377 304.56 658.486 312.5 659.718 320.425C661.055 329.114 662.776 337.718 664.275 346.372C666.261 358.485 667.202 370.746 667.087 383.021C667.315 389.091 667.202 395.17 666.747 401.229C666.65 402.753 666.249 404.242 665.569 405.61C665.416 405.887 665.185 406.113 664.904 406.261C664.557 406.449 664.171 406.552 663.776 406.56C659.068 406.954 659.025 414.352 663.776 413.955C673.282 413.162 674.251 403.854 674.417 396.082C674.939 383.154 674.572 370.206 673.319 357.329C671.984 345.941 669.476 334.747 667.636 323.44C666.427 316.007 665.335 308.556 664.36 301.086C663.057 292.925 662.268 284.691 661.998 276.432C661.977 271.675 654.583 271.664 654.603 276.432H654.601Z" fill="#D9D9D9"/>
<path d="M635.942 278.345V323.318C635.942 328.077 643.337 328.084 643.337 323.318V278.345C643.337 273.586 635.942 273.579 635.942 278.345Z" fill="#D9D9D9"/>
<path d="M622.042 164.969C622.617 174.862 623.033 184.762 624.147 194.611C625.295 204.746 625.843 214.981 627.701 225.026C628.566 229.698 635.694 227.72 634.831 223.059C633.058 213.476 632.594 203.698 631.476 194.035C630.357 184.372 629.997 174.668 629.442 164.975C629.168 160.246 621.772 160.213 622.047 164.975L622.042 164.969Z" fill="#D9D9D9"/>
<path d="M647.252 195.512C645.293 205.347 645.13 215.456 643.904 225.391C643.91 226.37 644.301 227.307 644.993 227.999C645.686 228.691 646.623 229.083 647.602 229.088C648.575 229.065 649.502 228.668 650.191 227.98C650.879 227.291 651.276 226.364 651.299 225.391C652.451 216.068 652.604 206.408 654.383 197.475C654.618 196.53 654.481 195.53 653.999 194.683C653.517 193.836 652.728 193.208 651.795 192.927C650.849 192.676 649.842 192.806 648.991 193.29C648.14 193.775 647.514 194.574 647.247 195.515L647.252 195.512Z" fill="#D9D9D9"/>
<path d="M599.535 116.117C599.474 119.878 599.666 123.638 600.109 127.372C600.576 132.635 601.155 137.889 601.772 143.138C603.096 154.517 603.972 165.969 605.424 177.326C607.533 193.828 611.179 210.111 614.286 226.441C615.907 233.602 616.991 240.875 617.527 248.198C617.712 252.942 625.107 252.966 624.922 248.198C624.482 241.657 623.577 235.156 622.214 228.744C620.862 221.349 619.344 213.98 617.895 206.602C616.231 198.146 614.678 189.646 613.368 181.129C611.661 170.05 611.016 158.784 609.698 147.647C608.992 141.677 608.3 135.708 607.729 129.724C607.143 125.213 606.876 120.666 606.93 116.117C607.152 111.361 599.757 111.372 599.535 116.117Z" fill="#D9D9D9"/>
<path d="M603.233 119.815C606.5 119.787 609.752 119.5 613 119.164C616.472 118.805 620.054 118.622 623.48 117.942C626.253 117.387 628.841 116.115 631.614 115.616C633.833 115.217 636.138 116.99 638.235 117.6C640.966 118.19 643.762 118.424 646.554 118.297C649.563 118.362 652.572 118.401 655.581 118.413C661.06 118.436 666.551 118.413 672.021 118.064C676.749 117.768 676.782 110.371 672.021 110.669C666.551 111.009 661.06 111.039 655.581 111.019C652.693 111.007 649.806 110.971 646.92 110.909C644.198 111.085 641.466 110.783 638.848 110.017C636.671 108.871 634.257 108.247 631.797 108.196C628.814 108.67 625.883 109.427 623.044 110.457C619.737 111.163 616.379 111.605 613.002 111.78C609.753 112.117 606.501 112.403 603.235 112.431C598.478 112.472 598.467 119.866 603.235 119.826L603.233 119.815Z" fill="#D9D9D9"/>
<path d="M673.428 389.186C707.445 389.123 741.456 389.062 775.464 389.001C782.41 388.994 789.355 388.989 796.299 388.986C801.058 388.986 801.065 381.592 796.299 381.592C765.271 381.592 734.245 381.64 703.218 381.738L673.428 381.795C668.67 381.795 668.661 389.19 673.428 389.19V389.186Z" fill="#D9D9D9"/>
<path d="M759.569 239.701H751.275C750.299 239.715 749.367 240.109 748.676 240.8C747.986 241.49 747.592 242.423 747.578 243.399C747.578 254.896 747.597 266.395 747.563 277.894C747.578 278.87 747.972 279.802 748.662 280.492C749.352 281.183 750.284 281.577 751.261 281.591C754.122 281.591 756.992 281.721 759.844 281.728C764.603 281.743 764.61 274.348 759.844 274.333C756.982 274.333 754.113 274.206 751.261 274.196L754.958 277.894C754.991 266.395 754.973 254.896 754.973 243.399L751.275 247.096H759.569C764.325 247.096 764.335 239.701 759.569 239.701Z" fill="#D9D9D9"/>
<path d="M796.299 132.166C766.455 132.166 736.611 132.131 706.768 132.06L674.384 132.016C669.626 132.016 669.618 139.411 674.384 139.411C709.961 139.458 745.538 139.504 781.117 139.55C786.177 139.55 791.237 139.553 796.299 139.561C801.057 139.561 801.065 132.166 796.299 132.166Z" fill="#D9D9D9"/>
<path d="M767.326 150.431C740.221 150.395 713.118 150.337 686.014 150.257C681.824 150.249 677.628 150.242 673.426 150.237C668.668 150.237 668.66 157.632 673.426 157.632C696.792 157.632 720.156 157.737 743.522 157.785C751.457 157.803 759.391 157.816 767.326 157.826C772.084 157.826 772.092 150.431 767.326 150.431Z" fill="#D9D9D9"/>
<path d="M796.299 150.44C792.058 150.44 787.817 150.44 783.576 150.44C782.595 150.44 781.655 150.83 780.962 151.523C780.268 152.217 779.879 153.157 779.879 154.138C779.879 155.118 780.268 156.059 780.962 156.752C781.655 157.446 782.595 157.835 783.576 157.835C787.817 157.835 792.058 157.835 796.299 157.835C797.279 157.835 798.22 157.446 798.913 156.752C799.607 156.059 799.996 155.118 799.996 154.138C799.996 153.157 799.607 152.217 798.913 151.523C798.22 150.83 797.279 150.44 796.299 150.44Z" fill="#D9D9D9"/>
<path d="M771.606 366.924C771.606 358.974 771.567 351.034 771.543 343.088C771.497 326.423 771.449 309.756 771.397 293.088C771.34 273.246 771.282 253.403 771.223 233.56C771.174 216.349 771.126 199.138 771.079 181.928C771.055 172.902 771.208 163.858 771.022 154.835C771.022 154.563 771.022 154.289 771.022 154.018C771.049 149.257 763.654 149.252 763.627 154.018C763.584 161.642 763.651 169.268 763.669 176.892C763.712 193.393 763.758 209.895 763.806 226.398C763.864 246.23 763.922 266.061 763.98 285.891C764.032 303.247 764.083 320.603 764.133 337.96C764.159 347.292 764.184 356.625 764.207 365.957C764.207 366.277 764.207 366.598 764.207 366.918C764.207 371.677 771.602 371.684 771.602 366.918L771.606 366.924Z" fill="#D9D9D9"/>
<path d="M786.889 384.231C786.889 375.054 786.85 365.879 786.828 356.702C786.78 337.258 786.731 317.813 786.682 298.368C786.623 275.108 786.561 251.848 786.497 228.589C786.449 208.486 786.402 188.383 786.355 168.279C786.331 157.782 786.484 147.268 786.297 136.771C786.297 136.484 786.297 136.198 786.297 135.913C786.323 131.153 778.928 131.147 778.903 135.913C778.851 144.767 778.925 153.624 778.945 162.479C778.986 181.76 779.031 201.041 779.08 220.321C779.137 243.571 779.195 266.821 779.254 290.071C779.306 310.321 779.357 330.569 779.407 350.816C779.433 361.622 779.458 372.427 779.483 383.231V384.231C779.483 388.99 786.878 388.997 786.878 384.231H786.889Z" fill="#D9D9D9"/>
<path d="M783.863 370.582C788.007 370.582 792.154 370.56 796.299 370.56C797.28 370.56 798.22 370.171 798.913 369.477C799.607 368.784 799.996 367.843 799.996 366.863C799.996 365.882 799.607 364.942 798.913 364.248C798.22 363.555 797.28 363.165 796.299 363.165C792.154 363.165 788.007 363.18 783.863 363.188C782.882 363.188 781.942 363.577 781.248 364.271C780.555 364.964 780.165 365.904 780.165 366.885C780.165 367.866 780.555 368.806 781.248 369.499C781.942 370.193 782.882 370.582 783.863 370.582Z" fill="#D9D9D9"/>
<path d="M672.388 370.843C704.228 370.77 736.069 370.684 767.908 370.582C772.665 370.582 772.674 363.188 767.908 363.188C736.069 363.25 704.228 363.337 672.388 363.448C667.629 363.459 667.62 370.854 672.388 370.843Z" fill="#D9D9D9"/>
<path d="M716.045 164.113C715.745 174.448 717.551 184.462 724.024 192.829C727.799 197.77 732.681 201.755 738.279 204.463C743.876 207.171 750.032 208.525 756.249 208.418C761.003 208.357 761.016 200.96 756.249 201.023C751.069 201.144 745.937 200.017 741.285 197.737C736.633 195.457 732.599 192.091 729.522 187.923C724.297 180.861 723.194 172.636 723.44 164.113C723.578 159.353 716.182 159.357 716.045 164.113Z" fill="#D9D9D9"/>
<path d="M730.819 221.98C729.048 226.877 726.996 231.678 725.046 236.505C724.914 236.981 724.879 237.478 724.943 237.967C725.006 238.456 725.167 238.928 725.416 239.354C725.661 239.773 725.986 240.14 726.373 240.434C726.759 240.727 727.2 240.942 727.67 241.065C728.14 241.188 728.629 241.218 729.11 241.152C729.591 241.086 730.055 240.926 730.474 240.681C731.27 240.151 731.868 239.37 732.173 238.463C734.123 233.636 736.177 228.833 737.946 223.936C738.201 222.99 738.072 221.981 737.588 221.129C737.103 220.278 736.302 219.652 735.358 219.388C734.413 219.152 733.413 219.29 732.566 219.772C731.719 220.254 731.091 221.043 730.81 221.976L730.819 221.98Z" fill="#D9D9D9"/>
<path d="M716.792 207.258C714.019 210.322 711.133 213.3 708.399 216.404C707.724 217.11 707.337 218.043 707.315 219.02C707.323 219.999 707.711 220.937 708.399 221.634C709.093 222.325 710.033 222.714 711.013 222.717C711.498 222.718 711.979 222.623 712.428 222.437C712.876 222.251 713.284 221.978 713.627 221.634C716.363 218.528 719.239 215.552 722.022 212.488C722.697 211.784 723.083 210.851 723.103 209.874C723.096 208.895 722.708 207.957 722.022 207.258C721.678 206.915 721.271 206.642 720.822 206.457C720.373 206.271 719.892 206.175 719.407 206.175C718.921 206.175 718.44 206.271 717.991 206.457C717.543 206.642 717.135 206.915 716.792 207.258Z" fill="#D9D9D9"/>
<path d="M706.853 189.934C704.411 190.849 702.022 191.898 699.623 192.913L700.504 192.543C699.604 192.924 698.702 193.297 697.789 193.652C696.873 193.936 696.089 194.539 695.58 195.351C695.334 195.77 695.174 196.234 695.108 196.715C695.042 197.197 695.071 197.686 695.195 198.156C695.318 198.626 695.533 199.067 695.826 199.454C696.12 199.841 696.487 200.166 696.907 200.411C697.331 200.664 697.803 200.827 698.293 200.89C698.783 200.954 699.281 200.917 699.756 200.781C701.773 200.013 703.747 199.135 705.736 198.296L704.853 198.666C706.165 198.111 707.483 197.571 708.818 197.07C709.735 196.788 710.519 196.185 711.027 195.371C711.273 194.952 711.433 194.489 711.499 194.007C711.565 193.526 711.536 193.037 711.413 192.567C711.29 192.097 711.075 191.656 710.782 191.269C710.488 190.882 710.121 190.557 709.702 190.311C709.277 190.059 708.805 189.896 708.315 189.833C707.826 189.769 707.328 189.806 706.853 189.942V189.934Z" fill="#D9D9D9"/>
<path d="M703.74 171.675C700.967 171.527 698.194 171.786 695.406 171.651C694.427 171.657 693.491 172.049 692.799 172.741C692.107 173.433 691.715 174.369 691.708 175.348C691.729 176.322 692.125 177.251 692.814 177.939C693.503 178.628 694.432 179.025 695.406 179.045C698.179 179.18 700.952 178.922 703.74 179.069C704.72 179.069 705.661 178.68 706.354 177.986C707.047 177.293 707.437 176.353 707.437 175.372C707.416 174.398 707.019 173.47 706.331 172.781C705.642 172.092 704.714 171.696 703.74 171.675Z" fill="#D9D9D9"/>
<path d="M670.895 297.041C674.857 296.795 680.183 299.47 676.706 303.896C676.265 304.36 675.95 304.93 675.791 305.55C675.632 306.171 675.635 306.821 675.798 307.441C675.961 308.06 676.28 308.627 676.725 309.088C677.169 309.55 677.724 309.89 678.337 310.076C679.459 310.32 680.502 310.841 681.371 311.592C682.24 312.343 682.907 313.299 683.311 314.374C683.496 315.504 683.387 316.662 682.995 317.737C682.602 318.813 681.94 319.769 681.071 320.514C680.623 320.975 680.302 321.545 680.139 322.167C679.977 322.788 679.977 323.442 680.141 324.064C680.305 324.685 680.627 325.254 681.076 325.714C681.524 326.175 682.084 326.512 682.701 326.692C686.654 327.574 692.971 331.773 689.029 336.176C688.346 336.875 687.963 337.813 687.963 338.791C687.963 339.769 688.346 340.708 689.029 341.406C691.178 343.133 694.228 344.49 695.409 347.115C696.448 349.422 697.31 353.216 694.844 354.904C690.939 357.575 694.633 363.984 698.574 361.289C703.54 357.893 704.638 352.38 703.087 346.775C702.458 344.242 701.176 341.919 699.369 340.036C697.84 338.531 695.92 337.513 694.259 336.176V341.406C696.028 339.643 697.172 337.35 697.517 334.877C697.861 332.403 697.387 329.885 696.167 327.705C694.911 325.633 693.242 323.84 691.264 322.439C689.286 321.038 687.041 320.059 684.668 319.562L686.299 325.742C688.083 324.067 689.403 321.959 690.129 319.622C690.855 317.285 690.963 314.8 690.442 312.409C689.681 310.108 688.354 308.035 686.582 306.381C684.81 304.727 682.65 303.546 680.302 302.946L681.934 309.126C685.077 305.123 686.567 300.012 683.585 295.421C682.159 293.434 680.237 291.854 678.011 290.841C675.784 289.827 673.331 289.415 670.895 289.646C666.168 289.94 666.135 297.337 670.895 297.041Z" fill="#D9D9D9"/>
<path d="M482.843 446.296C475.253 443.438 470.405 435.803 478.048 429.076C481.995 425.625 485.55 421.75 488.648 417.521C493.743 411.023 493.749 405.61 495.086 397.812C496.159 390.87 498.584 384.206 502.223 378.197C503.239 376.642 504.401 375.187 505.693 373.853C509.096 373.062 512.647 373.176 515.993 374.184C521.128 375.964 523.672 382.385 523.672 382.385C529.403 398.228 543.76 420.209 562.706 433.812L563.053 435.661C572.533 434.873 579.457 442.327 575.44 454.161C574.479 456.869 573.026 459.376 571.154 461.556C571.249 466.146 570.833 478.809 578.009 486.569C582.59 491.523 594.801 495.782 602.298 497.291L602.76 497.383C602.61 498.905 602.507 500.315 602.475 501.51C602.338 506.686 605.573 520.317 609.964 527.525V533.409C608.701 532.766 607.391 532.219 606.045 531.773C589.053 527.277 560.999 528.525 544.507 528.774C538.463 528.807 532.444 529.551 526.575 530.993L526.281 525.885C526.033 521.566 525.892 511.036 523.069 507.823C523.069 507.823 522.7 507.407 522.239 506.869C515.747 507.054 496.422 502.14 491.323 498.437C488.037 495.864 485.29 492.668 483.239 489.033C479.839 482.995 477.933 463.992 482.559 447.139" fill="white"/>
<path d="M577.244 485.694C573.01 480.149 570.047 473.74 568.564 466.922C568.564 466.922 568.401 466.068 568.167 464.828C571.381 461.883 573.87 458.234 575.439 454.166C579.126 443.309 573.602 436.139 565.34 435.635C552.342 427.036 541.327 414.362 533.522 402.005C529.459 401.532 525.457 400.633 521.583 399.321C512.143 395.037 504.523 381.362 505.815 370.512C508.697 366.482 510.944 361.988 514.277 358.2C522.829 348.227 534.504 341.44 547.402 338.944C579.366 333.64 624.722 350.189 630.028 378.212L634.903 390.229C646.18 396.185 649.929 429.717 634.52 457.305C644.063 458.564 652.484 461.89 658.073 468.767C665.061 477.38 665.377 489.288 661.316 499.02C655.132 513.848 644.184 534.816 654.069 547.171C646.507 553.789 630.35 547.036 624.957 543.973C618.102 540.077 613.955 534.056 609.962 527.506C605.572 520.296 602.336 506.666 602.473 501.491C602.505 500.297 602.608 498.885 602.758 497.367L602.296 497.272C594.799 495.773 582.588 491.514 578.007 486.55C577.752 486.287 577.498 486.002 577.244 485.694Z" fill="#BD9E84"/>
<path d="M432.477 597.214C423.583 597.225 414.312 597.456 405.926 600.756C396.928 604.298 390.595 610.87 384.379 618.037C381.105 621.814 377.77 625.946 376.349 630.83C375.766 632.898 375.625 635.065 375.937 637.19C376.249 639.315 377.005 641.35 378.157 643.163C382.368 650.373 388.948 656.243 394.884 662.02C409.598 676.32 428.044 689.399 448.988 691.599C459.665 692.683 470.4 690.214 479.53 684.574C484.217 681.685 487.578 676.81 490.808 672.484C495.716 665.902 500.249 659.032 504.649 652.102C507.699 647.295 510.873 642.472 513.476 637.403C515.647 633.175 509.267 629.429 507.091 633.67C501.787 643.453 495.853 652.881 489.329 661.896C486.178 666.714 482.669 671.287 478.83 675.576C478.186 676.26 477.51 676.891 476.818 677.525C476.476 677.839 477.419 677.214 476.574 677.701C475.376 678.392 474.221 679.141 472.997 679.788C468.723 682.056 464.077 683.538 459.28 684.166C440.38 686.569 422.099 675.78 408.178 664.094C401.877 658.778 395.93 653.056 390.375 646.964C387.648 644.307 385.383 641.213 383.673 637.811C382.248 634.43 383.908 631.058 385.781 628.198C388.676 624.056 391.942 620.188 395.54 616.64C398.645 613.323 402.32 610.59 406.39 608.572C414.415 604.69 423.755 604.632 432.473 604.621C437.232 604.621 437.239 597.226 432.473 597.226L432.477 597.214Z" fill="#F1B2B2"/>
<path d="M428.83 588.75C428.06 587.44 427.609 585.968 427.511 584.452C427.327 582.315 427.343 580.167 427.327 578.024C427.306 574.108 427.336 569.636 425.005 566.288C422.086 562.094 416.16 561.55 411.642 563.232C410.294 563.739 409.075 564.537 408.07 565.569C407.71 565.939 407.396 566.34 407.065 566.73C406.867 566.963 406.039 567.814 406.242 567.704C406.765 567.423 406.057 567.608 406.02 567.64C406.355 567.387 406.629 568.621 406.281 567.64C405.708 566.412 405.061 565.22 404.345 564.07C402.127 559.727 397.097 554.884 392.131 553.98C386.607 552.972 380.377 555.607 375.33 557.618C364.694 561.861 351.297 569.137 349.187 581.605C348.082 589.184 349.715 596.908 353.793 603.392C357.87 609.875 364.125 614.693 371.435 616.98C376.001 618.354 377.953 611.219 373.4 609.849C368.073 608.142 363.479 604.686 360.363 600.04C357.247 595.394 355.792 589.832 356.235 584.256C357.364 573.92 369.259 567.882 377.852 564.53C380.264 563.589 382.725 562.774 385.213 562.062C386.325 561.711 387.459 561.433 388.607 561.23C389.045 561.174 389.486 561.146 389.927 561.147C390.204 561.132 390.482 561.159 390.75 561.228C392.559 561.932 394.17 563.065 395.444 564.53C396.264 565.181 396.954 565.981 397.477 566.887C398.087 567.997 398.587 569.152 399.204 570.25C399.741 571.436 400.551 572.479 401.568 573.292C402.585 574.105 403.78 574.666 405.055 574.929C406.311 575.143 407.602 575.026 408.798 574.589C409.995 574.151 411.057 573.409 411.879 572.435C413.288 570.884 413.837 569.995 416.044 569.805C416.734 569.679 417.443 569.715 418.116 569.91C418.802 570.108 417.861 569.742 418.458 570.041C418.954 570.289 418.274 569.742 418.795 570.304C419.165 570.705 418.479 569.808 418.795 570.261C418.913 570.43 419.02 570.607 419.115 570.79C419.484 571.509 419.131 570.659 419.3 571.25C419.431 571.698 419.542 572.145 419.638 572.602C419.7 572.825 419.735 573.054 419.743 573.286C419.958 575.356 419.917 577.449 419.928 579.527C419.948 583.884 420.015 588.674 422.431 592.468C424.977 596.472 431.381 592.767 428.817 588.735L428.83 588.75Z" fill="#211715"/>
<path d="M442.51 617.599C448.857 607.491 458.779 600.162 465.889 590.619C473.633 580.228 479.569 568.466 487.62 558.3C500.456 542.094 522.831 532.869 543.2 532.476C553.466 532.278 563.739 531.997 574.005 532.163C579.699 532.256 585.397 532.481 591.068 533.012C595.872 533.306 600.631 534.108 605.266 535.404C612.434 537.685 618.644 543.947 623.504 549.639C629.583 556.984 634.827 564.983 639.138 573.487C643.879 582.375 647.758 591.697 650.721 601.325C653.841 611.704 654.801 622.602 655.919 633.339C655.946 634.311 656.344 635.236 657.032 635.924C657.72 636.611 658.645 637.01 659.617 637.037C660.595 637.03 661.532 636.638 662.224 635.946C662.916 635.254 663.307 634.318 663.314 633.339C662.205 622.783 661.356 611.942 658.52 601.674C655.971 592.798 652.647 584.163 648.587 575.868C644.286 566.665 639.067 557.92 633.01 549.765C627.555 542.555 621.254 535.53 613.308 531.002C604.679 526.092 593.766 525.641 584.073 525.107C572.796 524.495 561.484 524.728 550.194 524.961C539.207 525.186 528.649 526.022 518.154 529.562C507.265 533.111 497.222 538.859 488.646 546.45C483.818 551.113 479.582 556.353 476.035 562.051C471.71 568.492 467.481 574.992 463.199 581.463C459.145 587.416 454.543 592.978 449.454 598.075C444.474 602.86 440.007 608.15 436.125 613.861C433.588 617.904 439.983 621.626 442.51 617.594V617.599Z" fill="#F1B2B2"/>
<path d="M498.3 415.379C496.356 418.152 494.675 425.439 500.306 427.928C508.021 430.373 511.214 421.94 509.919 417.072C508.869 413.086 503.074 409.692 498.3 415.379Z" fill="#211715"/>
<path d="M483.827 442.736C481.451 441.923 479.468 440.248 478.27 438.042C477.234 435.664 478.639 433.596 480.359 431.976C485.067 427.739 489.298 422.999 492.974 417.841C496.583 412.53 497.42 406.466 498.408 400.278C499.317 393.128 501.703 386.245 505.416 380.066C509.387 373.912 516.004 370.032 519.928 363.766C522.461 359.721 516.066 356.002 513.543 360.034C509.777 366.046 503.423 369.884 499.415 375.748C495.094 382.584 492.318 390.281 491.281 398.302C490.882 401.593 490.276 404.855 489.469 408.071C488.435 411.248 486.781 414.19 484.603 416.724C482.617 419.277 480.463 421.694 478.157 423.962C475.41 426.608 472.441 428.905 471.132 432.642C468.335 440.656 475.038 447.139 481.854 449.853C482.8 450.108 483.809 449.979 484.66 449.494C485.512 449.009 486.138 448.208 486.402 447.265C486.639 446.319 486.503 445.319 486.021 444.472C485.539 443.624 484.748 442.996 483.814 442.717L483.827 442.736Z" fill="#211715"/>
<path d="M478.987 446.154C476.84 454.274 475.883 462.663 476.147 471.058C476.053 477.395 477.164 483.693 479.421 489.615C481.956 495.318 486.313 500.016 491.808 502.974C496.925 505.311 502.275 507.099 507.769 508.309C512.998 509.583 518.823 511.117 524.223 510.343C525.166 510.078 525.967 509.452 526.452 508.601C526.937 507.749 527.066 506.741 526.811 505.795C526.53 504.862 525.902 504.073 525.055 503.591C524.208 503.109 523.209 502.972 522.263 503.207C523.066 503.092 522.539 503.172 522.091 503.164C521.722 503.164 521.341 503.164 520.964 503.144C520.291 503.113 519.024 502.991 518.732 502.959C516.355 502.654 513.994 502.16 511.657 501.632C506.591 500.576 501.625 499.082 496.816 497.169C492.299 495.04 488.618 491.47 486.354 487.02C485.534 485.203 484.949 483.29 484.614 481.326C484.073 478.529 483.741 475.697 483.622 472.851C483.16 464.528 484.005 456.183 486.125 448.121C487.358 443.519 480.227 441.556 478.994 446.156L478.987 446.154Z" fill="#211715"/>
<path d="M480.678 467.285C482.464 468.481 484.46 469.329 486.561 469.782C488.699 470.277 490.895 470.472 493.087 470.363C494.068 470.363 495.008 469.973 495.701 469.28C496.395 468.586 496.784 467.646 496.784 466.665C496.784 465.685 496.395 464.744 495.701 464.051C495.008 463.357 494.068 462.968 493.087 462.968C491.799 463.039 490.506 462.991 489.227 462.824L490.21 462.955C488.696 462.755 487.214 462.36 485.801 461.779L486.685 462.149C485.887 461.808 485.125 461.388 484.411 460.895C483.776 460.524 483.045 460.35 482.311 460.396C481.576 460.443 480.873 460.707 480.29 461.155C479.706 461.604 479.27 462.216 479.037 462.914C478.803 463.611 478.783 464.363 478.98 465.072C479.274 465.982 479.874 466.762 480.678 467.281V467.285Z" fill="#211715"/>
<path d="M503.73 368.651C502.807 369.178 501.948 369.809 501.17 370.532C500.349 371.233 499.574 371.986 498.818 372.751C496.992 374.616 495.282 376.592 493.699 378.667C493.117 379.383 492.602 380.15 492.159 380.959C491.68 381.828 491.547 382.846 491.789 383.808C491.983 384.509 492.378 385.138 492.927 385.615C493.476 386.092 494.154 386.397 494.875 386.491C495.596 386.585 496.329 386.465 496.982 386.144C497.635 385.824 498.179 385.318 498.546 384.69C499.009 383.847 499.549 383.049 500.158 382.305L499.58 383.054C500.739 381.56 501.983 380.133 503.277 378.759C504.45 377.478 505.717 376.287 507.069 375.195L506.329 375.774C506.684 375.489 507.064 375.238 507.464 375.023C508.306 374.523 508.916 373.712 509.165 372.766C509.413 371.82 509.279 370.813 508.792 369.965C508.281 369.135 507.471 368.533 506.528 368.286C505.586 368.039 504.584 368.165 503.732 368.638L503.73 368.651Z" fill="#211715"/>
<path d="M520.45 510.433C520.819 510.879 519.934 509.614 520.228 510.151C520.291 510.263 520.37 510.369 520.435 510.481C520.59 510.742 520.688 511.056 520.855 511.308C520.357 510.552 520.614 510.72 520.753 511.103C520.808 511.252 520.86 511.404 520.91 511.556C521.027 511.908 521.131 512.264 521.222 512.622C521.428 513.402 521.592 514.194 521.723 514.987C521.796 515.406 521.851 515.828 521.919 516.248C521.995 516.717 521.816 515.397 521.895 516.083C521.921 516.318 521.951 516.554 521.977 516.789C522.313 519.812 522.406 522.847 522.578 525.881C522.578 526.862 522.967 527.802 523.66 528.496C524.354 529.189 525.294 529.579 526.275 529.579C527.256 529.579 528.196 529.189 528.889 528.496C529.583 527.802 529.972 526.862 529.972 525.881C529.788 522.611 529.691 519.337 529.29 516.083C528.819 512.28 528.24 508.226 525.678 505.205C524.983 504.516 524.043 504.129 523.064 504.129C522.085 504.129 521.145 504.516 520.45 505.205C519.779 505.91 519.405 506.846 519.405 507.819C519.405 508.793 519.779 509.728 520.45 510.433Z" fill="#211715"/>
<path d="M557.141 441.199C559.05 440.208 561.126 439.578 563.264 439.34C564.956 439.19 566.66 439.414 568.255 439.998C569.693 440.567 570.903 441.595 571.696 442.922C572.575 444.447 572.993 446.194 572.897 447.951C572.801 453.527 569.57 458.085 565.826 461.929C563.888 464.011 561.807 465.956 559.6 467.751C557.527 469.275 555.346 470.645 553.074 471.851C548.929 474.188 552.652 480.579 556.806 478.236C561.393 475.692 565.614 472.539 569.355 468.863C573.543 464.73 577.377 460.306 579.179 454.593C580.811 449.906 580.613 444.775 578.625 440.227C577.691 438.361 576.373 436.713 574.758 435.391C573.142 434.07 571.266 433.104 569.252 432.559C563.87 431.298 558.212 432.102 553.395 434.814C549.143 436.962 552.887 443.344 557.128 441.199H557.141Z" fill="#211715"/>
<path d="M565 467.906C565.95 472.383 567.53 476.703 569.692 480.738C571.487 484.63 574.09 488.096 577.327 490.906C580.964 493.596 584.98 495.732 589.244 497.245C593.158 498.784 597.196 499.987 601.314 500.84C602.259 501.077 603.26 500.94 604.107 500.458C604.954 499.976 605.582 499.186 605.862 498.252C606.113 497.306 605.982 496.3 605.498 495.449C605.014 494.598 604.215 493.972 603.274 493.704C596.064 492.226 588.068 489.822 582.122 485.335C582.483 485.607 581.638 484.927 581.651 484.94C581.377 484.699 581.111 484.452 580.856 484.2C580.369 483.699 579.912 483.168 579.488 482.612C578.189 480.844 577.046 478.966 576.072 477C574.236 473.518 572.907 469.792 572.125 465.935C571.857 464.993 571.231 464.194 570.38 463.71C569.528 463.226 568.521 463.095 567.575 463.347C566.639 463.623 565.847 464.251 565.364 465.099C564.882 465.947 564.747 466.949 564.987 467.895L565 467.906Z" fill="#211715"/>
<path d="M520.108 383.372C528.172 404.837 542.329 423.479 560.84 437.01C561.688 437.498 562.694 437.633 563.641 437.385C564.588 437.137 565.399 436.526 565.898 435.685C566.372 434.833 566.498 433.831 566.251 432.889C566.004 431.946 565.403 431.135 564.573 430.625C547.872 417.931 534.962 400.91 527.238 381.407C525.617 376.97 518.468 378.889 520.108 383.372Z" fill="#211715"/>
<path d="M501.966 372.448C502.007 378.705 503.751 384.832 507.011 390.173C509.931 395.454 514.353 399.748 519.716 402.513C520.569 402.98 521.569 403.103 522.51 402.856C523.451 402.61 524.262 402.012 524.776 401.186C525.263 400.337 525.396 399.331 525.148 398.385C524.9 397.439 524.289 396.628 523.448 396.128C522.38 395.633 521.357 395.046 520.391 394.375C520.391 394.375 519.479 393.704 519.965 394.083C519.769 393.93 519.581 393.773 519.39 393.614C518.912 393.209 518.448 392.785 517.996 392.349C516.177 390.617 514.627 388.623 513.397 386.433C512.089 384.307 511.079 382.012 510.396 379.611C510.027 378.358 509.738 377.082 509.531 375.792C509.492 375.528 509.492 375.539 509.531 375.823L509.489 375.443C509.463 375.128 509.43 374.812 509.409 374.498C509.363 373.812 509.352 373.126 509.361 372.44C509.361 371.46 508.972 370.519 508.278 369.826C507.585 369.132 506.644 368.743 505.664 368.743C504.683 368.743 503.743 369.132 503.049 369.826C502.356 370.519 501.966 371.46 501.966 372.44V372.448Z" fill="#211715"/>
<path d="M633.764 460.901C640.488 461.751 647.561 463.82 652.684 468.459C655.222 470.81 657.214 473.69 658.519 476.895C659.824 480.1 660.41 483.552 660.236 487.008C660.029 494.095 656.723 500.352 654.021 506.743C650.96 513.346 648.651 520.271 647.138 527.39C645.825 534.81 646.093 542.843 650.878 549.045L651.456 544.564C647.829 547.568 641.697 546.245 637.617 545.137C632.737 543.939 628.121 541.846 624.005 538.963C619.023 534.872 614.994 529.744 612.197 523.936C609.57 518.585 607.737 512.88 606.756 507C605.583 500.759 606.681 494.464 607.705 488.266C607.936 487.32 607.796 486.322 607.315 485.476C606.834 484.63 606.047 484.001 605.117 483.716C604.171 483.464 603.163 483.594 602.313 484.078C601.462 484.563 600.835 485.362 600.569 486.304C599.45 493.078 598.23 499.951 599.253 506.797C600.266 513.665 602.296 520.344 605.276 526.615C608.481 533.49 613.175 539.565 619.019 544.402C623.907 548.034 629.455 550.68 635.354 552.192C642.494 554.177 650.637 554.804 656.681 549.8C657.259 549.222 657.629 548.468 657.733 547.657C657.838 546.847 657.67 546.024 657.258 545.318C653.135 539.972 653.309 533.35 654.736 527.033C656.642 519.7 659.225 512.56 662.451 505.704C665.507 498.641 668.139 491.697 667.559 483.838C667.103 475.87 663.549 468.397 657.657 463.014C650.97 457.098 642.449 454.61 633.759 453.512C632.78 453.517 631.842 453.908 631.15 454.6C630.457 455.292 630.066 456.23 630.061 457.209C630.085 458.182 630.482 459.109 631.171 459.797C631.859 460.485 632.786 460.883 633.759 460.907L633.764 460.901Z" fill="#211715"/>
<path d="M633.04 393.423C634.138 394.069 635.094 394.929 635.853 395.952C636.944 397.509 637.819 399.206 638.454 400.997C640.066 405.709 640.933 410.643 641.024 415.622C641.405 428.953 638.344 442.158 632.135 453.961C629.93 458.172 636.31 461.91 638.521 457.693C645.593 444.378 648.99 429.42 648.363 414.356C647.877 405.113 645.799 392.02 636.772 387.038C632.601 384.736 628.867 391.12 633.04 393.423Z" fill="#211715"/>
<path d="M505.915 376.275C509.982 371.723 512.506 366.107 516.377 361.417C520.209 356.841 524.741 352.9 529.804 349.74C538.721 344.277 549.013 341.473 559.468 341.658C577.706 341.561 597.446 346.806 612.068 358.02C619.026 363.356 624.732 370.444 626.466 379.194C627.39 383.858 634.517 381.884 633.596 377.229C629.825 358.187 611.009 346.377 594.058 340.277C574.225 333.137 549.953 330.904 530.666 340.742C524.347 344.004 518.607 348.281 513.676 353.404C511.056 356.151 508.72 359.155 506.703 362.371C504.936 365.421 502.923 368.322 500.685 371.045C497.518 374.579 502.732 379.828 505.915 376.275Z" fill="#211715"/>
<path d="M678.686 685.852L684.559 660.251C685.484 656.215 686.484 652.19 687.332 648.14C688.072 644.576 688.31 641.015 686.292 637.809C682.132 631.204 674.434 630.91 667.468 630.487C658.775 629.957 650.08 629.504 641.381 629.128C623.833 628.37 606.275 627.926 588.708 627.795C579.85 627.73 570.993 627.744 562.136 627.837C554.049 627.614 545.956 627.869 537.9 628.601C533.932 628.968 530.132 630.375 526.881 632.679C523.746 635.213 521.406 638.595 520.139 642.422C518.873 646.232 517.953 650.149 517.388 654.124C516.516 659.008 515.784 663.922 515.135 668.834C515.139 669.814 515.53 670.751 516.222 671.444C516.915 672.136 517.853 672.527 518.832 672.532C519.805 672.507 520.731 672.11 521.42 671.422C522.108 670.734 522.505 669.807 522.529 668.834C523.318 661.604 524.585 654.434 526.321 647.371C526.925 644.522 528.228 641.867 530.113 639.647C532.223 637.646 534.922 636.381 537.809 636.038C541.012 635.598 544.245 635.405 547.478 635.461C551.446 635.38 555.416 635.314 559.387 635.264C567.481 635.164 575.574 635.13 583.668 635.162C599.704 635.227 615.736 635.553 631.766 636.14C639.704 636.431 647.639 636.786 655.572 637.205C659.536 637.414 663.502 637.64 667.468 637.881C670.533 638.066 673.994 637.844 676.848 639.163C678.072 639.549 679.111 640.373 679.766 641.476C680.422 642.579 680.649 643.885 680.403 645.145C679.777 649.258 678.555 653.346 677.63 657.402L671.554 683.885C670.493 688.517 677.619 690.496 678.684 685.852H678.686Z" fill="#93AEC1"/>
<path d="M73.7264 219.39C73.8226 270.784 74.1627 386.611 74.2681 435.269C74.2783 440.785 76.4715 446.074 80.3685 449.978C84.2655 453.883 89.5495 456.086 95.066 456.107C161.912 456.366 369.07 455.948 437.478 455.83C443.012 455.824 448.317 453.619 452.226 449.701C456.135 445.784 458.328 440.474 458.322 434.94C458.298 385.102 458.219 266.506 458.191 219.38C458.19 216.64 457.65 213.926 456.6 211.395C455.551 208.863 454.013 206.563 452.074 204.625C450.136 202.688 447.834 201.152 445.302 200.104C442.77 199.056 440.056 198.517 437.315 198.518C366.395 198.518 162.302 198.468 94.6094 198.457C91.8631 198.458 89.1439 199 86.6074 200.053C84.071 201.106 81.767 202.649 79.8274 204.593C77.8878 206.537 76.3506 208.845 75.3037 211.384C74.2568 213.923 73.7208 216.643 73.7264 219.39Z" fill="white"/>
<path d="M75.686 442.808C74.7516 440.404 74.2708 437.848 74.2681 435.269C74.2533 428.994 74.2366 421.601 74.2163 413.374C156.388 413.265 381.403 412.873 458.322 412.65C458.322 421.019 458.322 428.549 458.322 434.947C458.328 440.481 456.135 445.791 452.226 449.709C448.317 453.627 443.012 455.831 437.478 455.837C369.076 455.956 161.912 456.374 95.066 456.115C90.8734 456.098 86.7829 454.819 83.3266 452.446C79.8702 450.073 77.208 446.714 75.686 442.808Z" fill="#BD9E84"/>
<path d="M305.739 460.415C306.125 464.482 306.358 467.582 306.499 470.398C306.736 475.204 307.168 480.196 307.586 485.012C308.562 496.259 311.468 502.61 323.232 504.847C326.626 505.492 328.593 506.869 329.576 509.012C330.56 511.154 330.717 517.826 327.382 517.826C321.192 517.826 215.091 517.802 205.034 517.802C201.777 517.802 201.481 511.156 202.472 509.012C203.463 506.867 205.43 505.499 208.817 504.847C220.575 502.61 223.485 496.259 224.461 485.012C224.88 480.189 225.313 475.201 225.55 470.398C225.69 467.588 225.919 464.482 226.309 460.415" fill="#BD9E84"/>
<path d="M274.851 434.429C274.874 435.666 274.642 436.895 274.168 438.038C273.695 439.181 272.991 440.214 272.1 441.073C271.208 441.931 270.15 442.596 268.99 443.026C267.83 443.457 266.593 443.643 265.358 443.573C258.932 443.601 255.598 439.225 255.58 434.514C255.558 433.28 255.783 432.053 256.243 430.907C256.703 429.762 257.388 428.719 258.257 427.842C259.126 426.965 260.162 426.272 261.304 425.802C262.446 425.332 263.67 425.095 264.905 425.106C267.452 425.052 269.92 425.998 271.779 427.74C273.637 429.483 274.74 431.884 274.851 434.429Z" fill="#D9D9D9"/>
<path d="M70.029 219.39C70.066 239.674 70.1128 259.958 70.1695 280.242C70.2336 305.035 70.2989 329.828 70.3655 354.619C70.4246 376.585 70.4813 398.552 70.5356 420.518C70.5596 430.142 69.0769 441.057 75.0279 449.321C78.591 454.383 83.9221 457.926 89.9692 459.25C93.8592 459.83 97.797 460.023 101.725 459.827C117.809 459.875 133.893 459.895 149.976 459.888C170.805 459.888 191.634 459.88 212.463 459.864C235.51 459.845 258.557 459.82 281.604 459.786C304.08 459.755 326.554 459.721 349.027 459.683L406.586 459.583L429.127 459.542C432.531 459.542 436.03 459.751 439.421 459.435C445.654 458.917 451.461 456.06 455.675 451.437C459.797 446.785 462.059 440.775 462.027 434.559C462.045 430.492 462.027 426.415 462.027 422.343L462.01 392.534L461.966 320.947L461.921 251.871L461.905 224.805C461.905 219.724 462.001 214.768 459.999 209.98C457.661 204.323 453.287 199.747 447.742 197.155C440.099 193.683 430.919 194.826 422.707 194.826H398.021L337.261 194.815L268.155 194.798L198.95 194.785L137.858 194.774H112.925H102.309C98.5704 194.609 94.8246 194.704 91.0987 195.057C85.2657 195.945 79.9401 198.883 76.0776 203.344C72.2152 207.804 70.0688 213.495 70.0235 219.395C69.9606 224.156 77.3554 224.159 77.4183 219.395C77.4271 216.735 78.0434 214.112 79.2202 211.727C80.397 209.341 82.1032 207.256 84.2086 205.63C88.0779 202.692 92.4242 202.167 97.1126 202.169H117.578L171.765 202.18L237.331 202.191L305.968 202.204L370.255 202.215L422.502 202.224H432.823C437.171 202.224 441.408 202.078 445.366 204.221C447.735 205.494 449.777 207.298 451.332 209.491C452.887 211.684 453.913 214.208 454.331 216.864C454.674 220.758 454.731 224.671 454.501 228.572L454.54 289.282L454.584 360.999C454.598 381.828 454.61 402.661 454.621 423.5C454.621 427.526 454.75 431.577 454.621 435.601C454.521 438.247 453.813 440.835 452.551 443.162C451.288 445.49 449.506 447.495 447.343 449.021C440.95 453.458 432.213 452.146 424.803 452.164C408.095 452.194 391.385 452.223 374.674 452.253L311.568 452.358C288.944 452.391 266.318 452.422 243.693 452.449C221.932 452.472 200.17 452.489 178.406 452.499C160.042 452.506 141.678 452.501 123.314 452.484C116.175 452.475 109.034 452.462 101.893 452.443C98.4684 452.676 95.0286 452.552 91.6293 452.073C89.0155 451.508 86.5665 450.35 84.4715 448.688C82.3764 447.026 80.6913 444.905 79.5462 442.488C77.5699 438.284 77.9618 433.662 77.9507 429.149C77.9409 424.817 77.931 420.485 77.9211 416.153C77.8953 405.863 77.8688 395.572 77.8416 385.28C77.7788 361.351 77.7172 337.423 77.6568 313.496C77.5976 290.713 77.5397 267.929 77.483 245.144C77.4645 236.564 77.4466 227.982 77.4294 219.401C77.4146 214.633 70.0198 214.624 70.029 219.39Z" fill="#211715"/>
<path d="M74.9004 417.444C80.5759 417.444 86.2514 417.432 91.9269 417.41C102.403 417.382 112.879 417.352 123.355 417.32C137.414 417.278 151.473 417.232 165.531 417.183C181.953 417.127 198.374 417.071 214.796 417.013C232.362 416.95 249.928 416.888 267.495 416.828C284.987 416.761 302.48 416.694 319.972 416.625C336.171 416.558 352.37 416.49 368.569 416.419C382.257 416.36 395.945 416.299 409.633 416.235C419.587 416.185 429.544 416.13 439.502 416.068C444.51 416.035 449.52 416.033 454.527 415.937C454.859 415.937 455.194 415.937 455.527 415.911C460.261 415.652 460.291 408.257 455.527 408.516C451.94 408.71 448.317 408.61 444.727 408.636C435.878 408.702 427.028 408.755 418.177 408.795C405.298 408.864 392.419 408.926 379.539 408.98C363.845 409.05 348.152 409.118 332.46 409.182C315.174 409.253 297.887 409.322 280.6 409.387C262.94 409.455 245.279 409.521 227.616 409.585L177.165 409.77C162.41 409.819 147.656 409.868 132.902 409.916C121.429 409.953 109.956 409.987 98.4825 410.019C91.5091 410.038 84.5364 410.054 77.5643 410.067H74.9022C70.1436 410.067 70.1362 417.462 74.9022 417.462L74.9004 417.444Z" fill="#211715"/>
<path d="M302.042 460.415C302.744 467.887 303.062 475.389 303.706 482.867C304.177 488.362 304.63 494.124 307.438 499.012C308.805 501.22 310.596 503.136 312.706 504.649C314.817 506.162 317.206 507.242 319.736 507.829C321.769 508.383 324.969 508.35 326.156 510.426C326.128 510.374 326.456 511.672 326.47 511.857C326.464 512.833 326.368 513.807 326.186 514.767C325.89 514.582 328.269 514.212 326.596 514.123C325.942 514.088 325.276 514.123 324.62 514.123H318.305H297.784L243.545 514.112H206.155C205.88 514.078 205.603 514.078 205.328 514.112C205.297 514.112 205.053 514.09 205.044 514.112C205.092 513.994 205.994 514.497 206.046 514.482C206.319 514.438 205.905 514.684 205.964 514.262C206.011 513.922 205.685 512.722 205.678 512.09C205.659 511.527 205.734 510.964 205.902 510.426C207.116 508.278 210.523 508.346 212.614 507.745C215.148 507.067 217.544 505.949 219.693 504.444C223.632 501.401 226.299 497.002 227.173 492.102C228.434 484.931 229.125 477.672 229.24 470.392C229.424 467.065 229.687 463.737 229.999 460.409C229.992 459.431 229.6 458.495 228.908 457.803C228.217 457.111 227.28 456.719 226.302 456.712C225.328 456.732 224.399 457.128 223.71 457.817C223.021 458.506 222.625 459.435 222.605 460.409C221.865 468.174 221.538 475.955 220.867 483.72C220.475 488.266 220.046 493.887 216.757 497.252C212.731 501.369 206.454 500.347 202.069 503.761C200.059 505.55 198.731 507.98 198.309 510.638C197.888 513.296 198.4 516.017 199.758 518.34C202.422 522.809 209.664 521.483 214.132 521.483H236.034L292.445 521.496H315.495C319.377 521.496 323.307 521.666 327.19 521.496C333.081 521.243 334.4 515.005 333.66 510.173C333.474 508.835 333.018 507.55 332.318 506.395C331.619 505.24 330.692 504.239 329.593 503.455C326.973 501.561 323.819 501.354 320.828 500.423C318.798 499.882 316.949 498.806 315.476 497.308C314.003 495.81 312.958 493.943 312.452 491.904C311.758 489.218 311.325 486.472 311.158 483.703C310.788 479.405 310.431 475.103 310.202 470.793C310.017 467.32 309.747 463.855 309.422 460.393C309.396 459.42 308.999 458.494 308.311 457.806C307.623 457.118 306.697 456.72 305.724 456.695C304.746 456.702 303.809 457.094 303.117 457.786C302.425 458.478 302.034 459.414 302.027 460.393L302.042 460.415Z" fill="#211715"/>
<path d="M230.861 505.769H301.023C305.782 505.769 305.789 498.374 301.023 498.374H230.861C226.102 498.374 226.095 505.769 230.861 505.769Z" fill="#211715"/>
<path d="M113.646 231.597C113.646 236.283 113.657 351.177 113.657 359.102C149.965 359.102 319.946 359.117 321.889 359.117C321.889 354.362 321.937 249.204 321.949 231.597C280.806 231.6 115.923 231.597 113.646 231.597Z" fill="white"/>
<path d="M141.934 317.661L156.454 317.652V336.995C150.795 336.995 145.706 336.995 141.7 336.995C141.7 331.109 141.665 319.432 141.665 317.661H141.934Z" fill="#FBA70E"/>
<path d="M141.934 317.661L156.454 317.652V336.995C150.795 336.995 145.706 336.995 141.7 336.995C141.7 331.109 141.665 319.432 141.665 317.661H141.934Z" fill="black" fill-opacity="0.2"/>
<path d="M196.691 296.228C196.691 307.408 196.732 339.075 196.726 336.986C202.317 336.977 207.39 336.971 211.479 336.967V292.484H196.689C196.689 292.854 196.691 294.201 196.691 296.228Z" fill="#FBA70E"/>
<path d="M196.691 296.228C196.691 307.408 196.732 339.075 196.726 336.986C202.317 336.977 207.39 336.971 211.479 336.967V292.484H196.689C196.689 292.854 196.691 294.201 196.691 296.228Z" fill="black" fill-opacity="0.2"/>
<path d="M169.181 308.418C169.181 306.969 169.181 305.959 169.181 305.6H183.97V336.986H169.214C169.221 339.45 169.19 316.719 169.181 308.418Z" fill="#FBA70E"/>
<path d="M169.181 308.418C169.181 306.969 169.181 305.959 169.181 305.6H183.97V336.986H169.214C169.221 339.45 169.19 316.719 169.181 308.418Z" fill="black" fill-opacity="0.2"/>
<path d="M325.6 318.366C325.611 293.347 325.624 268.322 325.639 243.292C325.639 239.392 325.639 235.494 325.639 231.599C325.625 230.622 325.231 229.69 324.54 228.999C323.85 228.309 322.917 227.915 321.941 227.901H135.569C128.426 227.901 121.234 227.657 114.093 227.901C113.945 227.901 113.795 227.901 113.646 227.901C112.669 227.915 111.737 228.309 111.046 228.999C110.356 229.69 109.962 230.622 109.948 231.599C109.948 245.975 109.948 260.353 109.948 274.733V340.676C109.948 346.82 109.948 352.962 109.948 359.104C109.962 360.08 110.357 361.012 111.047 361.702C111.737 362.393 112.669 362.787 113.646 362.801C130.549 362.801 147.452 362.801 164.356 362.801H237.034H275.672C280.43 362.801 280.438 355.406 275.672 355.406H204.643H137.638C129.643 355.406 121.646 355.406 113.647 355.406L117.345 359.104C117.345 343.953 117.345 328.804 117.345 313.655V248.361C117.345 242.774 117.345 237.187 117.345 231.599L113.647 235.296H321.949L318.251 231.599C318.238 252.765 318.226 273.931 318.216 295.098L318.205 318.366C318.205 323.124 325.6 323.132 325.6 318.366Z" fill="#211715"/>
<path d="M216.424 264.805C216.4 260.699 216.794 256.497 213.757 253.273C212.592 252.167 211.203 251.325 209.684 250.804C208.165 250.282 206.551 250.094 204.953 250.252H147.399C144.924 250.252 142.373 250.078 139.903 250.287C137.923 250.438 136.037 251.19 134.495 252.44C132.953 253.691 131.829 255.382 131.273 257.288C130.892 259.151 130.759 261.057 130.877 262.954C130.721 265.017 131.086 267.086 131.938 268.97C132.798 270.583 134.088 271.925 135.664 272.851C137.24 273.776 139.041 274.246 140.868 274.211C153.411 274.448 165.973 274.311 178.518 274.365C185.675 274.395 192.831 274.426 199.986 274.455C203.074 274.732 206.185 274.631 209.25 274.156C211.297 273.584 213.103 272.363 214.397 270.676C215.691 268.99 216.402 266.931 216.424 264.805C216.637 260.048 209.242 260.058 209.03 264.803C208.926 267.092 206.915 267.086 205.147 267.079L198.436 267.055L182.081 266.986C170.645 266.937 159.209 266.889 147.773 266.84C145.608 266.84 143.441 266.816 141.276 266.816C138.598 266.816 138.254 265.369 138.278 262.954C138.302 260.54 137.84 257.778 140.953 257.647C143.094 257.553 145.262 257.647 147.405 257.647H199.836C202.146 257.516 204.461 257.516 206.77 257.647C210.054 258.028 209.02 262.479 209.035 264.805C209.057 269.56 216.452 269.573 216.424 264.805Z" fill="#211715"/>
<path d="M145.401 336.927C145.401 330.504 145.364 324.084 145.362 317.661L141.665 321.359C146.594 321.359 151.524 321.356 156.454 321.35L152.757 317.652V336.962C152.757 337.942 153.146 338.883 153.84 339.576C154.533 340.27 155.474 340.659 156.454 340.659C157.435 340.659 158.375 340.27 159.069 339.576C159.762 338.883 160.152 337.942 160.152 336.962V317.652C160.138 316.676 159.744 315.743 159.053 315.053C158.363 314.363 157.43 313.969 156.454 313.955C151.524 313.955 146.594 313.958 141.665 313.964C140.688 313.978 139.756 314.372 139.065 315.062C138.375 315.753 137.981 316.685 137.967 317.661C137.967 324.084 138.004 330.504 138.006 336.927C138.006 337.907 138.395 338.848 139.089 339.541C139.782 340.235 140.723 340.624 141.703 340.624C142.684 340.624 143.624 340.235 144.318 339.541C145.011 338.848 145.401 337.907 145.401 336.927Z" fill="#211715"/>
<path d="M172.911 336.927C172.911 326.485 172.876 316.036 172.874 305.6L169.177 309.298C174.107 309.298 179.037 309.298 183.967 309.298L180.269 305.6V336.971C180.269 341.728 187.664 341.737 187.664 336.971V305.591C187.65 304.615 187.256 303.682 186.566 302.992C185.875 302.302 184.943 301.908 183.967 301.894C179.037 301.894 174.107 301.894 169.177 301.894C168.201 301.908 167.268 302.302 166.578 302.992C165.887 303.682 165.493 304.615 165.48 305.591C165.48 316.033 165.517 326.482 165.517 336.918C165.517 341.676 172.911 341.684 172.911 336.918V336.927Z" fill="#211715"/>
<path d="M200.424 336.927C200.424 324.139 200.413 311.35 200.391 298.562C200.391 296.539 200.391 294.515 200.391 292.491L196.693 296.189C201.623 296.189 206.553 296.189 211.483 296.189L207.785 292.491V336.971C207.785 341.728 215.18 341.737 215.18 336.971V292.484C215.166 291.507 214.772 290.575 214.082 289.885C213.392 289.194 212.459 288.8 211.483 288.786C206.553 288.786 201.623 288.786 196.693 288.786C195.717 288.8 194.784 289.194 194.094 289.885C193.404 290.575 193.01 291.507 192.996 292.484C192.996 305.165 193.007 317.845 193.029 330.525C193.029 332.656 193.029 334.787 193.029 336.919C193.029 341.678 200.424 341.685 200.424 336.919V336.927Z" fill="#211715"/>
<path d="M133.314 340.693C158.488 340.693 183.663 340.683 208.839 340.663H221.225C225.982 340.663 225.991 333.268 221.225 333.268C196.46 333.268 171.696 333.278 146.931 333.298H133.316C128.557 333.298 128.548 340.693 133.314 340.693Z" fill="#211715"/>
<path d="M240.85 328.513H264.883C265.863 328.513 266.804 328.124 267.497 327.43C268.191 326.737 268.58 325.796 268.58 324.816C268.58 323.835 268.191 322.895 267.497 322.201C266.804 321.508 265.863 321.118 264.883 321.118H240.85C239.869 321.118 238.928 321.508 238.235 322.201C237.542 322.895 237.152 323.835 237.152 324.816C237.152 325.796 237.542 326.737 238.235 327.43C238.928 328.124 239.869 328.513 240.85 328.513Z" fill="#211715"/>
<path d="M241.898 341.249H257.305C258.285 341.249 259.226 340.86 259.919 340.166C260.613 339.473 261.002 338.532 261.002 337.552C261.002 336.571 260.613 335.631 259.919 334.937C259.226 334.244 258.285 333.854 257.305 333.854H241.898C240.917 333.854 239.977 334.244 239.283 334.937C238.59 335.631 238.2 336.571 238.2 337.552C238.2 338.532 238.59 339.473 239.283 340.166C239.977 340.86 240.917 341.249 241.898 341.249Z" fill="#211715"/>
<path d="M283.092 265.387C280.721 261.359 277.321 258.035 273.239 255.756C269.158 253.478 264.544 252.327 259.871 252.422H259.714C259.714 252.446 259.714 271.669 259.714 280.086C256.386 283.71 244.349 296.516 241.175 299.916C246.375 304.34 253.047 306.649 259.869 306.386C276.744 306.386 286.762 295.848 286.762 279.158C286.783 274.324 285.516 269.57 283.092 265.387Z" fill="#F1B2B2"/>
<path d="M289.032 289.794C292.146 278.607 290.142 266.217 281.874 257.73C277.905 253.829 272.973 251.048 267.58 249.671C262.188 248.294 256.526 248.37 251.173 249.892C246.131 251.331 241.552 254.061 237.888 257.812C234.224 261.563 231.603 266.205 230.282 271.279C228.972 276.301 228.86 281.56 229.954 286.634C231.048 291.707 233.318 296.453 236.581 300.489C244.715 309.95 259.05 311.923 270.538 308.592C275.1 307.268 273.159 300.13 268.573 301.461C260.666 303.755 250.709 303.192 244.183 297.638C238.213 292.56 236.069 284.3 236.788 276.7C237.173 272.719 238.596 268.909 240.915 265.651C243.233 262.393 246.366 259.8 250.001 258.131C253.935 256.406 258.255 255.748 262.524 256.224C266.794 256.7 270.863 258.294 274.32 260.843C282.591 267.219 284.601 278.145 281.9 287.834C280.621 292.425 287.753 294.384 289.03 289.8L289.032 289.794Z" fill="#211715"/>
<path d="M256.018 252.422V280.086L257.101 277.472C250.975 284.141 244.73 290.698 238.55 297.316C235.303 300.792 240.522 306.033 243.778 302.545C247.106 298.983 250.44 295.425 253.781 291.872C255.726 289.794 257.67 287.714 259.614 285.633C261.278 283.852 263.295 282.259 263.413 279.678C263.827 270.632 263.413 261.481 263.413 252.422C263.413 247.664 256.018 247.656 256.018 252.422Z" fill="#211715"/>
<path d="M338.053 386.783H337.803C337.635 383.978 337.104 375.199 336.531 367.356L333.83 369.429C331.741 371.034 325.101 376.619 323.355 378.262C321.499 380.293 319.004 381.628 316.284 382.046C313.887 382.354 311.451 381.977 309.259 380.957C307.525 379.758 300.182 370.749 296.109 365.321C294.466 363.13 291.044 358.268 290.143 357.087C290.363 356.29 303.097 347.531 305.279 345.704C306.628 347.35 312.147 354.432 313.903 355.575C315.735 353.968 320.743 344.357 322.392 342.105C323.771 340.225 325.193 336.276 327.325 333.346C328.635 330.65 332.758 329.007 335.644 327.522C337.419 326.611 342.841 324.108 346.194 322.79C348.197 320.479 351.761 316.689 354.21 314.066C359.19 316.503 364.32 318.621 369.569 320.407L370.189 320.555L371.113 320.335C376.302 318.57 381.374 316.476 386.297 314.066C388.709 316.8 391.266 319.404 393.958 321.865L395.451 323.172C398.478 324.535 402.214 326.446 404.31 327.522C407.141 328.847 409.795 330.521 412.21 332.505C414.772 335.454 416.608 338.962 417.571 342.748C420.239 355.342 423.034 373.77 424.456 386.851C407.925 386.851 373.624 386.783 338.053 386.783Z" fill="white"/>
<path d="M381.88 363.718C380.501 356.246 377.162 338.921 377.047 337.757C377.548 336.5 379.212 333.3 380.51 330.992C377.073 327.215 371.313 320.706 371.111 320.335L369.569 320.407C369.362 320.788 363.781 327.596 360.559 331.37C362.004 333.568 363.942 336.686 364.811 337.96C364.718 339.439 361.039 361.79 360.429 365.968C363.785 369.267 367.374 372.319 371.17 375.101C373.444 373.455 379.656 368.667 382.337 366.245C382.233 365.656 382.076 364.789 381.88 363.718Z" fill="#93AEC1"/>
<path d="M290.075 351.661C287.211 348.1 281.625 346.66 278.572 343.445C275.108 339.796 274.28 334.202 275.08 329.375C276.47 320.991 289.918 315.999 294.085 323.487L294.541 323.045C296.237 320.85 300.971 319.921 303.221 322.287C305.057 324.217 305.893 330.196 304.109 332.741C303.433 333.515 302.561 334.093 301.586 334.414C300.61 334.735 299.566 334.788 298.562 334.568L299.302 335.228C301.214 337.483 302.431 340.244 302.805 343.177L303.576 348.581L294.606 356.591L290.075 351.661Z" fill="white"/>
<path d="M347.141 318.525C343.58 319.747 340.106 321.21 336.744 322.904C333.019 324.635 328.876 326.289 325.875 329.157C325.19 329.854 324.806 330.793 324.806 331.771C324.806 332.749 325.19 333.687 325.875 334.385C326.578 335.061 327.515 335.439 328.49 335.439C329.465 335.439 330.403 335.061 331.105 334.385C331.309 334.2 331.525 334.015 331.732 333.83C331.109 334.407 331.78 333.808 331.917 333.71C332.381 333.394 332.861 333.107 333.35 332.834C334.372 332.257 335.431 331.75 336.492 331.231C337.818 330.578 339.136 329.918 340.476 329.297C342.165 328.511 343.864 327.75 345.573 327.016C346.464 326.868 345.876 326.885 345.573 327.016C345.759 326.96 345.939 326.885 346.109 326.792C346.479 326.641 346.849 326.491 347.219 326.347C347.84 326.103 348.465 325.864 349.102 325.668C349.571 325.539 350.009 325.319 350.392 325.021C350.775 324.722 351.096 324.351 351.336 323.929C351.575 323.507 351.73 323.041 351.79 322.559C351.85 322.078 351.814 321.589 351.685 321.12C351.556 320.652 351.336 320.214 351.038 319.831C350.739 319.448 350.368 319.127 349.946 318.887C349.524 318.647 349.058 318.493 348.576 318.433C348.094 318.373 347.605 318.409 347.137 318.538L347.141 318.525Z" fill="#211715"/>
<path d="M391.889 325.655C396.977 327.674 401.886 330.12 406.562 332.967C409.067 334.364 411.063 336.522 412.262 339.129C413.495 341.945 414.364 344.907 414.85 347.943C417.364 360.81 419.318 373.825 420.747 386.851C420.775 387.823 421.173 388.748 421.86 389.435C422.548 390.123 423.473 390.521 424.445 390.549C425.423 390.542 426.36 390.15 427.052 389.458C427.743 388.766 428.135 387.83 428.142 386.851C426.569 372.498 424.445 358.144 421.586 343.991C420.154 336.914 416.878 330.602 410.605 326.772C405.276 323.534 399.67 320.774 393.854 318.525C392.908 318.272 391.9 318.402 391.049 318.886C390.198 319.37 389.572 320.17 389.306 321.113C389.068 322.058 389.204 323.06 389.686 323.907C390.169 324.754 390.96 325.383 391.894 325.661L391.889 325.655Z" fill="#211715"/>
<path d="M297.156 325.659C297.389 325.37 297.655 325.109 297.949 324.881L297.2 325.457C297.635 325.136 298.106 324.868 298.605 324.659L297.721 325.028C298.343 324.779 298.993 324.607 299.657 324.518L298.673 324.651C299.245 324.585 299.823 324.585 300.394 324.651L299.413 324.518C299.875 324.581 300.328 324.698 300.762 324.866L299.881 324.496C300.261 324.656 300.619 324.863 300.947 325.114L300.198 324.535C300.445 324.737 300.669 324.965 300.866 325.215L300.287 324.466C300.582 324.878 300.827 325.323 301.017 325.792L300.648 324.908C301.028 325.871 301.286 326.877 301.417 327.903L301.284 326.92C301.427 327.988 301.436 329.07 301.311 330.14L301.443 329.157C301.364 329.767 301.212 330.366 300.99 330.941L301.359 330.057C301.22 330.388 301.044 330.701 300.834 330.992L301.413 330.244C301.19 330.526 300.933 330.781 300.648 331.002L301.387 330.425C301.093 330.638 300.777 330.819 300.444 330.967L301.328 330.597C300.804 330.811 300.255 330.958 299.694 331.033L300.677 330.902C300.002 330.983 299.319 330.983 298.644 330.902L299.625 331.033C298.977 330.946 298.342 330.78 297.734 330.538L298.618 330.907C298.34 330.79 298.07 330.655 297.81 330.501C296.964 330.012 295.958 329.878 295.014 330.128C294.069 330.378 293.262 330.992 292.768 331.836C292.275 332.679 292.136 333.684 292.381 334.63C292.626 335.576 293.236 336.387 294.077 336.884C295.38 337.637 296.821 338.118 298.315 338.296C299.809 338.475 301.323 338.349 302.766 337.925C304.559 337.383 306.12 336.26 307.203 334.732C307.892 333.714 308.343 332.553 308.523 331.336C309.407 325.975 307.773 318.43 301.432 317.408C299.664 317.086 297.844 317.209 296.135 317.765C294.507 318.252 293.045 319.18 291.911 320.446C291.244 321.156 290.858 322.085 290.827 323.06C290.834 324.039 291.223 324.977 291.911 325.674C292.605 326.365 293.545 326.755 294.525 326.757C295.011 326.763 295.494 326.671 295.943 326.484C296.393 326.298 296.8 326.022 297.139 325.674L297.156 325.659Z" fill="#211715"/>
<path d="M296.704 337.844C296.942 338.063 297.159 338.302 297.355 338.559L296.777 337.81C297.472 338.768 298.048 339.806 298.492 340.903L298.122 340.021C298.648 341.195 299.018 342.432 299.221 343.702L299.087 342.721C299.106 342.872 299.121 343.024 299.128 343.177C299.149 344.153 299.536 345.086 300.211 345.791C300.905 346.484 301.845 346.874 302.825 346.874C303.806 346.874 304.746 346.484 305.44 345.791C306.133 345.098 306.523 344.158 306.523 343.177C306.337 341.075 305.773 339.023 304.859 337.121C304.537 336.355 304.159 335.613 303.73 334.902C303.242 334.058 302.638 333.286 301.936 332.61C301.232 331.933 300.299 331.546 299.322 331.527C298.343 331.534 297.405 331.923 296.708 332.61C296.365 332.953 296.092 333.361 295.906 333.81C295.72 334.258 295.625 334.739 295.625 335.225C295.625 335.711 295.72 336.192 295.906 336.64C296.092 337.089 296.365 337.497 296.708 337.84L296.704 337.844Z" fill="#211715"/>
<path d="M292.689 349.054C290.714 346.96 288.377 345.239 285.792 343.974C284.716 343.366 283.638 342.761 282.617 342.064C282.383 341.905 282.148 341.744 281.924 341.569C282.536 342.051 281.706 341.347 281.65 341.295C281.401 341.062 281.177 340.809 280.939 340.567C280.44 340.064 281.035 340.805 280.613 340.169C280.24 339.617 279.903 339.041 279.606 338.445C279.539 338.308 279.255 337.59 279.471 338.158C279.341 337.816 279.221 337.47 279.116 337.119C278.94 336.532 278.795 335.936 278.681 335.333C278.681 335.287 278.528 334.1 278.602 334.854C278.561 334.425 278.528 333.995 278.511 333.56C278.485 332.886 278.493 332.212 278.534 331.538C278.556 331.168 278.589 330.811 278.628 330.449C278.611 330.612 278.508 331.094 278.646 330.36C278.722 329.922 278.827 329.49 278.959 329.066C279.005 328.927 279.066 328.791 279.105 328.65C279.271 328.066 278.678 329.39 279.179 328.53C279.364 328.21 279.532 327.885 279.733 327.576C279.835 327.375 279.963 327.189 280.114 327.021C279.386 327.618 279.885 327.299 280.098 327.073C280.354 326.8 280.602 326.519 280.874 326.258C281.079 326.06 282.157 324.999 281.334 325.807C281.975 325.266 282.69 324.819 283.457 324.479C283.658 324.376 283.869 324.295 284.069 324.184C284.64 323.888 283.843 324.265 283.81 324.291C284.271 324.044 284.771 323.877 285.289 323.797C285.642 323.701 286.008 323.651 286.359 323.557C287.117 323.352 285.455 323.599 286.233 323.557C286.374 323.557 286.516 323.529 286.659 323.52C287.078 323.49 287.498 323.487 287.918 323.509C288.054 323.509 288.195 323.537 288.33 323.54C288.962 323.553 287.391 323.302 288.354 323.564C288.67 323.651 288.995 323.764 289.317 323.834C290.012 323.989 288.557 323.396 289.165 323.764C289.334 323.867 289.52 323.949 289.69 324.043C289.798 324.108 289.912 324.198 290.025 324.256C290.652 324.564 289.432 323.644 289.914 324.161C290.13 324.392 290.691 324.716 290.768 325.045L290.447 324.635C290.53 324.753 290.611 324.873 290.687 325.004C290.827 325.265 290.968 325.539 291.12 325.794C291.271 326.049 291.221 326.348 291.023 325.561C291.105 325.883 291.242 326.191 291.328 326.513C291.397 326.77 291.441 327.032 291.504 327.289C291.689 328.029 291.543 326.55 291.528 327.45C291.528 327.77 291.539 328.081 291.511 328.4C291.584 327.569 291.45 328.521 291.397 328.711C291.003 329.795 290.422 330.802 289.681 331.686C289.435 331.956 289.179 332.214 288.914 332.462C288.816 332.555 288.036 333.202 288.566 332.797C288.292 333.004 288.005 333.196 287.709 333.37C287.563 333.459 286.341 334.013 287.134 333.704C286.203 333.988 285.416 334.617 284.934 335.463C284.453 336.309 284.314 337.307 284.546 338.252C284.811 339.195 285.437 339.995 286.288 340.479C287.14 340.964 288.147 341.093 289.093 340.84C295.632 338.291 300.635 331.02 298.272 323.947C297.519 321.576 296.002 319.523 293.957 318.107C291.912 316.691 289.455 315.993 286.971 316.123C284.635 316.226 282.344 316.802 280.237 317.815C278.13 318.829 276.251 320.26 274.712 322.021C272.871 324.446 271.662 327.291 271.196 330.3C270.73 333.309 271.02 336.387 272.041 339.256C273.259 343.181 275.839 346.542 279.316 348.733C280.807 349.703 282.397 350.513 283.924 351.426C284.634 351.842 285.322 352.293 285.986 352.778C285.509 352.423 286.383 353.134 286.55 353.293C286.871 353.605 287.176 353.934 287.461 354.279C288.158 354.966 289.097 355.351 290.075 355.351C291.053 355.351 291.992 354.966 292.689 354.279C293.364 353.576 293.741 352.639 293.741 351.665C293.741 350.69 293.364 349.754 292.689 349.051V349.054Z" fill="#211715"/>
<path d="M266.515 284.486C272.333 295.266 278.297 305.97 284.229 316.687C285.254 318.536 286.263 320.396 287.317 322.233C289.672 326.369 296.063 322.647 293.702 318.501C287.711 307.983 281.974 297.311 276.151 286.703C275.063 284.723 273.973 282.745 272.899 280.758C270.638 276.568 264.252 280.297 266.515 284.49V284.486Z" fill="#211715"/>
<path d="M331.216 366.815C327.859 369.416 324.588 372.176 321.429 375.019C319.562 376.696 317.844 378.347 315.199 378.404C314.045 378.458 312.888 378.346 311.766 378.072C311.195 377.922 310.939 377.567 311.55 378.09C311.283 377.861 311.036 377.611 310.788 377.362C304.145 370.706 298.956 362.707 293.332 355.222V358.954C292.904 359.838 292.929 359.381 293.593 358.878C294.375 358.287 294.19 358.392 294.702 358.009C296.274 356.832 297.864 355.678 299.457 354.528C302.282 352.495 305.199 350.533 307.893 348.318H302.663C305.547 351.857 308.275 356.096 312.036 358.767C312.743 359.174 313.565 359.338 314.374 359.233C315.183 359.129 315.936 358.762 316.517 358.189C319.845 355.024 321.851 350.093 324.171 346.2C325.212 344.455 326.347 342.815 327.264 340.996C328.419 338.703 329.541 335.594 331.66 334.004C332.484 333.488 333.079 332.678 333.326 331.738C333.572 330.798 333.45 329.799 332.985 328.946C332.486 328.104 331.675 327.493 330.728 327.245C329.782 326.997 328.775 327.132 327.927 327.62C323.305 331.087 321.407 336.649 318.432 341.401C317.092 343.54 315.881 345.76 314.598 347.934C313.942 349.043 313.28 350.152 312.576 351.243C312.276 351.705 311.982 352.186 311.638 352.617C312.088 352.053 311.391 352.861 311.287 352.961L315.768 352.382C316.665 353.02 315.524 352.108 315.362 351.947C315.051 351.639 314.753 351.317 314.459 350.995C313.567 350.025 312.718 349.015 311.871 348.002C310.524 346.381 309.22 344.725 307.889 343.09C307.187 342.413 306.25 342.035 305.274 342.035C304.299 342.035 303.361 342.413 302.659 343.09C301.999 343.632 302.901 342.917 302.596 343.149C302.291 343.382 301.994 343.601 301.69 343.826C301.032 344.314 300.367 344.795 299.703 345.275C297.967 346.531 296.226 347.775 294.493 349.032C292.798 350.26 291.108 351.496 289.458 352.781C288.454 353.404 287.597 354.236 286.945 355.222C286.614 355.788 286.44 356.432 286.44 357.088C286.44 357.744 286.614 358.388 286.945 358.954C290.132 363.195 293.133 367.56 296.412 371.734C298.398 374.26 300.42 376.759 302.513 379.201C303.8 380.866 305.26 382.391 306.869 383.749C309.513 385.431 312.656 386.15 315.768 385.783C319.525 385.454 323.044 383.805 325.701 381.129C329.175 377.987 332.745 374.918 336.446 372.05C337.135 371.354 337.521 370.415 337.521 369.435C337.521 368.456 337.135 367.516 336.446 366.82C335.741 366.15 334.805 365.776 333.832 365.776C332.859 365.776 331.923 366.15 331.218 366.82L331.216 366.815Z" fill="#211715"/>
<path d="M331.802 355.591C333.067 365.926 333.481 376.397 334.106 386.783C334.127 387.757 334.523 388.685 335.212 389.374C335.901 390.063 336.829 390.459 337.803 390.48C338.781 390.471 339.716 390.079 340.408 389.388C341.099 388.696 341.492 387.761 341.5 386.783C340.876 376.397 340.461 365.926 339.197 355.591C339.168 354.62 338.769 353.696 338.082 353.009C337.394 352.322 336.471 351.923 335.5 351.894C334.521 351.9 333.584 352.292 332.892 352.984C332.2 353.676 331.808 354.613 331.802 355.591Z" fill="#211715"/>
<path d="M400.925 355.482C399.672 365.73 399.302 376.112 398.681 386.413C398.681 387.394 399.071 388.334 399.764 389.027C400.457 389.721 401.398 390.11 402.378 390.11C403.359 390.11 404.299 389.721 404.993 389.027C405.686 388.334 406.076 387.394 406.076 386.413C406.697 376.112 407.067 365.73 408.32 355.482C408.315 354.503 407.924 353.566 407.231 352.874C406.539 352.181 405.602 351.79 404.623 351.785C403.649 351.808 402.722 352.205 402.034 352.893C401.345 353.582 400.948 354.509 400.925 355.482Z" fill="#211715"/>
<path d="M337.803 390.48C366.684 390.48 395.564 390.503 424.444 390.548C429.201 390.548 429.21 383.154 424.444 383.154C395.564 383.154 366.684 383.131 337.803 383.085C333.044 383.085 333.037 390.48 337.803 390.48Z" fill="#211715"/>
<path d="M399.093 281.094C399.173 281.094 401.484 281.946 402.005 282.871C402.335 283.527 402.524 284.245 402.56 284.978C402.814 287.851 402.274 290.738 400.999 293.325C400.401 294.633 399.527 295.796 398.439 296.736C397.458 297.424 396.291 297.796 395.093 297.804L394.619 297.828C393.448 301.613 391.555 305.134 389.044 308.198C385.897 312.255 381.443 315.098 376.437 316.243C374.333 316.671 372.192 316.9 370.045 316.926C368.066 316.878 366.093 316.677 364.145 316.325C358.953 315.316 354.282 312.509 350.953 308.397C348.398 305.346 346.462 301.827 345.253 298.035C344.567 298.228 343.842 298.237 343.151 298.061C342.46 297.886 341.828 297.533 341.316 297.037C340.215 296.111 339.328 294.958 338.713 293.658C337.41 291.085 336.84 288.203 337.065 285.327C337.094 284.593 337.278 283.872 337.603 283.213C337.885 282.735 338.27 282.326 338.731 282.016C339.191 281.707 339.715 281.504 340.264 281.423C340.397 281.403 340.532 281.39 340.667 281.382C340.667 281.382 341.776 258.512 369.843 258.512C398.326 258.508 399.093 281.094 399.093 281.094Z" fill="white"/>
<path d="M356.212 245.832C352.012 247.28 348.249 249.774 345.279 253.079C339.014 260.346 337.552 271.71 339.278 280.887L343.558 279.722C350.186 274.744 358.88 268.567 364.057 265.487C364.375 265.984 366.46 269.865 367.351 271.508C368.863 270.749 377.349 266.077 380.577 264.685C386.448 267.719 392.854 272.708 395.836 279.21L399.944 280.34C401.35 274.263 401.066 267.917 399.123 261.989C396.851 255.769 393.342 253.367 388.973 250.725C383.782 243.107 372.903 242.55 364.687 243.735C361.796 244.135 358.956 244.838 356.212 245.832Z" fill="#7A7473"/>
<path d="M356.203 284.584C355.597 286.555 355.992 291.086 359.716 291.473C364.643 291.443 364.903 285.963 363.245 283.386C362.829 282.752 362.238 282.253 361.543 281.95C360.848 281.647 360.079 281.554 359.332 281.681C358.585 281.808 357.891 282.15 357.335 282.666C356.779 283.182 356.386 283.848 356.203 284.584Z" fill="#211715"/>
<path d="M376.313 284.584C375.709 286.555 376.103 291.086 379.826 291.473C384.753 291.443 385.015 285.963 383.357 283.386C382.941 282.752 382.349 282.254 381.654 281.951C380.959 281.648 380.191 281.554 379.443 281.682C378.696 281.809 378.002 282.151 377.446 282.667C376.89 283.182 376.496 283.849 376.313 284.584Z" fill="#211715"/>
<path d="M344.27 294.466C343.586 294.663 344.64 294.554 344.259 294.514C344.142 294.503 343.519 294.536 344.1 294.53C344.808 294.53 343.863 294.53 343.867 294.408C343.867 294.355 344.595 294.821 344.102 294.471C343.948 294.364 343.778 294.255 343.617 294.164C343.225 293.941 344.209 294.689 343.826 294.331C343.527 294.05 343.235 293.776 342.948 293.484C342.353 292.872 343.209 293.9 342.937 293.499C342.837 293.351 342.732 293.207 342.634 293.057C342.414 292.722 342.214 292.377 342.027 292.024C341.916 291.813 341.811 291.598 341.709 291.384C341.667 291.293 341.624 291.199 341.585 291.112C341.477 290.866 341.505 290.93 341.669 291.306C341.453 290.913 341.306 290.485 341.234 290.042C341.109 289.615 340.998 289.184 340.909 288.748C340.868 288.563 340.835 288.361 340.798 288.167C340.663 287.452 340.815 288.589 340.798 288.125C340.731 287.241 340.717 286.355 340.757 285.47C340.757 285.368 340.798 284.73 340.766 285.272C340.735 285.845 340.833 285.087 340.863 284.956C340.955 284.531 340.914 284.821 340.802 285.074C341.064 284.481 340.432 285.381 340.698 285.178C340.783 285.109 341.195 284.736 340.761 285.078C340.206 285.52 340.968 284.945 340.987 284.982L340.546 285.167L340.778 285.093C341.103 285.021 341.091 285.011 340.741 285.063C340.402 285.098 340.38 285.102 340.672 285.078C341.653 285.078 342.593 284.688 343.287 283.995C343.98 283.302 344.37 282.361 344.37 281.381C344.37 280.4 343.98 279.459 343.287 278.766C342.593 278.073 341.653 277.683 340.672 277.683C339.058 277.73 337.503 278.299 336.24 279.304C334.976 280.309 334.073 281.697 333.664 283.259C333.094 286.068 333.221 288.975 334.034 291.724C335.479 296.941 339.979 303.406 346.246 301.6C347.192 301.339 347.995 300.714 348.48 299.861C348.964 299.007 349.09 297.997 348.83 297.051C348.569 296.105 347.943 295.302 347.09 294.817C346.237 294.333 345.227 294.207 344.281 294.468L344.27 294.466Z" fill="#211715"/>
<path d="M391.055 296.841C389.614 301.457 386.939 305.591 383.318 308.797C379.682 311.752 375.113 313.317 370.429 313.21C365.619 313.434 360.879 311.998 357.002 309.143C353.152 305.992 350.307 301.785 348.818 297.039C347.32 292.547 340.177 294.473 341.687 299.006C343.585 305.129 347.217 310.57 352.143 314.672C357.363 318.714 363.831 320.807 370.429 320.588C376.7 320.641 382.802 318.559 387.733 314.685C392.68 310.506 396.31 304.984 398.186 298.786C399.653 294.248 392.516 292.303 391.055 296.819V296.841Z" fill="#211715"/>
<path d="M399.093 284.791C398.748 284.769 398.354 284.729 398.936 284.81C399.328 284.865 398.404 284.484 398.718 284.716C398.79 284.751 398.859 284.791 398.927 284.834C399.16 284.984 399.07 284.907 398.657 284.603C398.752 284.726 398.864 284.836 398.99 284.928C398.805 284.878 398.62 284.268 398.805 284.743C398.479 283.943 398.735 284.558 398.788 284.754C398.833 284.917 398.833 285.409 398.857 284.939C398.886 284.362 398.875 285.154 398.886 285.285C398.941 286.169 398.928 287.056 398.847 287.938C398.81 288.396 398.882 288.11 398.866 287.834C398.851 288.082 398.806 288.326 398.733 288.563C398.642 288.997 398.535 289.43 398.407 289.857C398.295 290.238 398.161 290.611 398.038 290.985C397.718 291.872 398.256 290.582 398.006 291.064C397.917 291.236 397.843 291.415 397.757 291.589C397.572 291.946 397.387 292.297 397.172 292.635C397.054 292.82 396.919 293.005 396.803 293.19C396.542 293.606 397.232 292.728 396.888 293.079C396.854 293.112 396.05 293.97 396.037 293.95C396.069 293.996 396.653 293.395 396.037 293.909C395.708 294.177 396.607 293.752 396.183 293.863C395.961 293.92 395.736 293.992 395.518 294.048C394.898 294.223 395.658 293.996 395.664 294.048C395.664 294.064 394.715 294.116 394.627 294.12C393.646 294.12 392.706 294.509 392.012 295.203C391.319 295.896 390.929 296.837 390.929 297.817C390.929 298.798 391.319 299.738 392.012 300.432C392.706 301.125 393.646 301.515 394.627 301.515C396.011 301.542 397.385 301.278 398.661 300.74C399.936 300.203 401.085 299.403 402.033 298.394C403.797 296.267 405.066 293.773 405.747 291.094C406.428 288.415 406.505 285.618 405.97 282.906C405.565 281.373 404.68 280.01 403.443 279.017C402.207 278.024 400.685 277.454 399.101 277.389C398.122 277.395 397.184 277.786 396.492 278.478C395.8 279.17 395.409 280.108 395.403 281.087C395.426 282.06 395.823 282.987 396.511 283.676C397.2 284.365 398.127 284.761 399.101 284.784L399.093 284.791Z" fill="#211715"/>
<path d="M370.551 316.841C368.06 316.114 365.626 315.202 363.271 314.114L362.729 313.886C363.008 314.003 363.178 314.071 362.799 313.916L361.725 313.456C360.999 313.141 360.275 312.823 359.551 312.5C358.385 311.977 357.222 311.446 356.081 310.867C355.371 310.471 354.553 310.313 353.746 310.417C352.939 310.521 352.188 310.882 351.602 311.446C349.071 314.154 346.522 316.846 344.065 319.623C343.394 320.328 343.02 321.264 343.02 322.237C343.02 323.21 343.394 324.146 344.065 324.851C346.019 326.994 348.123 329.009 350.197 331.033C352.036 332.828 353.844 334.731 355.841 336.356C356.547 337.025 357.483 337.398 358.456 337.398C359.429 337.398 360.365 337.025 361.071 336.356C363.197 334.13 365.198 331.789 367.066 329.343C368.24 327.927 369.406 326.506 370.566 325.078C371.364 324.193 372.099 323.253 372.768 322.267C373.263 321.42 373.401 320.411 373.152 319.462C372.903 318.514 372.288 317.703 371.441 317.208C370.594 316.713 369.586 316.574 368.637 316.823C367.688 317.072 366.877 317.687 366.382 318.534C366.336 318.612 366.242 318.687 366.214 318.769C366.107 319.078 366.966 317.817 366.382 318.547C365.978 319.053 365.572 319.559 365.164 320.063C364.013 321.483 362.852 322.896 361.683 324.302C359.862 326.682 357.912 328.96 355.841 331.126H361.071C359.072 329.502 357.264 327.598 355.427 325.803C353.353 323.779 351.247 321.766 349.293 319.623V324.851C351.75 322.078 354.301 319.383 356.83 316.674L352.351 317.253C355.174 318.687 358.113 319.909 361.039 321.135C363.484 322.268 366.01 323.216 368.597 323.969C369.543 324.23 370.553 324.104 371.406 323.62C372.259 323.135 372.884 322.332 373.145 321.387C373.405 320.441 373.28 319.431 372.795 318.578C372.311 317.725 371.508 317.099 370.562 316.839L370.551 316.841Z" fill="#211715"/>
<path d="M357.366 333.227C358.795 335.418 360.159 337.655 361.618 339.827L361.112 337.96C361.03 338.992 361.18 337.59 361.112 338.049C361.019 338.655 360.927 339.263 360.842 339.868C360.568 341.672 360.287 343.475 359.999 345.275C359.304 349.659 358.602 354.041 357.895 358.422C357.626 360.097 357.361 361.773 357.098 363.45C356.739 365.768 356.638 367.377 358.427 369.209C361.742 372.591 365.386 375.634 369.305 378.293C369.867 378.635 370.513 378.816 371.171 378.816C371.83 378.816 372.475 378.635 373.038 378.293C375.213 376.709 377.343 375.054 379.458 373.389C381.375 371.878 385.209 369.743 385.903 367.229C386.051 365.33 385.825 363.421 385.237 361.609C384.835 359.447 384.43 357.29 384.021 355.138C383.15 350.531 382.27 345.926 381.416 341.317C381.17 339.99 381.033 338.594 380.691 337.289C380.662 337.18 380.675 337.032 380.634 336.919C380.289 339.015 380.329 339.535 380.756 338.48C380.917 338.143 381.081 337.808 381.248 337.474C382.026 335.915 382.854 334.381 383.699 332.852C386.014 328.689 379.632 324.954 377.315 329.12C376.143 331.227 374.966 333.355 373.988 335.562C373.421 336.856 373.295 338.3 373.627 339.672C374.088 342.417 374.629 345.152 375.145 347.888C376.358 354.33 377.645 360.764 378.767 367.223L379.717 363.626C376.415 366.573 372.877 369.299 369.299 371.902H373.032C369.401 369.421 366.051 366.553 363.04 363.348L363.99 366.946C364.914 360.66 365.983 354.408 366.979 348.141C367.41 345.433 367.852 342.724 368.236 340.007C368.652 338.585 368.488 337.056 367.78 335.755C366.532 333.616 365.099 331.553 363.746 329.48C361.158 325.509 354.752 329.21 357.362 333.213L357.366 333.227Z" fill="#211715"/>
<path d="M372.095 323.899C374.652 323.153 377.15 322.216 379.567 321.096C382.457 319.887 385.367 318.678 388.162 317.258L383.68 316.68C386.08 319.427 388.638 322.032 391.342 324.481V319.251C387.724 323.193 384.122 327.201 380.279 330.926H385.509C383.309 328.813 381.34 326.413 379.312 324.139C378.065 322.74 376.824 321.335 375.589 319.924C375.178 319.453 374.766 318.98 374.361 318.503C374.23 318.347 374.102 318.186 373.967 318.033C373.498 317.493 374.496 318.784 374.304 318.467C373.809 317.621 372.998 317.005 372.049 316.756C371.1 316.508 370.092 316.646 369.245 317.141C368.398 317.636 367.783 318.447 367.534 319.396C367.285 320.344 367.423 321.353 367.918 322.2C368.595 323.176 369.351 324.094 370.179 324.945C371.412 326.368 372.658 327.781 373.919 329.184C376.001 331.519 378.022 333.991 380.279 336.154C380.981 336.831 381.918 337.21 382.894 337.21C383.869 337.21 384.807 336.831 385.509 336.154C389.352 332.433 392.954 328.421 396.57 324.481C397.252 323.782 397.634 322.843 397.634 321.866C397.634 320.889 397.252 319.951 396.57 319.251C393.867 316.802 391.309 314.198 388.909 311.452C388.325 310.884 387.573 310.52 386.765 310.416C385.958 310.312 385.138 310.472 384.429 310.873C383.361 311.415 382.272 311.914 381.179 312.406C380.46 312.729 379.739 313.045 379.014 313.359L377.942 313.822L377.399 314.051C377.859 313.857 377.689 313.929 377.33 314.079C374.999 315.15 372.592 316.049 370.129 316.768C369.661 316.897 369.223 317.117 368.84 317.416C368.457 317.714 368.136 318.085 367.896 318.507C367.656 318.93 367.502 319.395 367.442 319.877C367.382 320.359 367.418 320.848 367.547 321.316C367.676 321.784 367.896 322.223 368.194 322.606C368.493 322.989 368.864 323.31 369.286 323.549C369.708 323.789 370.174 323.944 370.655 324.004C371.137 324.064 371.626 324.028 372.095 323.899Z" fill="#211715"/>
<path d="M378.153 261.74C373.832 263.742 369.725 266.158 365.484 268.314L370.544 269.639C369.464 267.63 368.438 265.572 367.249 263.62C366.744 262.785 365.933 262.179 364.989 261.932C364.045 261.684 363.042 261.813 362.191 262.293C355.118 266.683 348.276 271.434 341.691 276.528C340.867 277.044 340.271 277.854 340.025 278.795C339.778 279.735 339.9 280.734 340.365 281.588C340.865 282.429 341.676 283.04 342.623 283.288C343.569 283.536 344.575 283.401 345.423 282.913C352.008 277.82 358.85 273.069 365.922 268.678L360.864 267.353C362.053 269.299 363.082 271.362 364.158 273.372C364.666 274.204 365.476 274.808 366.42 275.055C367.363 275.303 368.365 275.175 369.216 274.699C373.457 272.544 377.565 270.127 381.884 268.125C382.724 267.625 383.335 266.814 383.583 265.868C383.832 264.922 383.698 263.916 383.211 263.067C382.701 262.237 381.891 261.635 380.948 261.388C380.006 261.141 379.005 261.267 378.153 261.74Z" fill="#211715"/>
<path d="M380.506 268.857C381.863 269.641 383.177 270.496 384.442 271.42C384.59 271.527 384.734 271.636 384.88 271.745C385.335 272.087 384.967 271.834 384.74 271.634C385.043 271.898 385.37 272.137 385.679 272.396C386.295 272.915 386.898 273.454 387.487 274.015C388.045 274.551 388.583 275.106 389.101 275.679C389.371 275.979 389.634 276.287 389.89 276.603C390.007 276.744 390.121 276.888 390.236 277.029C390.739 277.646 389.733 276.332 390.194 276.977C391.134 278.267 391.954 279.641 392.643 281.081C393.131 281.913 393.923 282.522 394.852 282.78C395.561 282.976 396.313 282.956 397.01 282.723C397.708 282.489 398.32 282.053 398.769 281.47C399.217 280.887 399.481 280.183 399.528 279.449C399.574 278.715 399.4 277.983 399.029 277.348C396.043 270.926 390.264 265.972 384.239 262.477C383.82 262.232 383.356 262.072 382.875 262.006C382.394 261.94 381.904 261.97 381.435 262.093C380.965 262.216 380.524 262.431 380.137 262.724C379.75 263.018 379.425 263.385 379.18 263.804C378.935 264.223 378.775 264.687 378.709 265.168C378.643 265.649 378.672 266.138 378.795 266.608C378.919 267.078 379.133 267.519 379.427 267.906C379.72 268.293 380.087 268.618 380.506 268.863V268.857Z" fill="#211715"/>
<path d="M390.85 247.118C381.643 236.307 362.618 238.333 351.197 243.994C337.147 250.96 333.13 267.445 335.712 281.869C335.979 282.811 336.606 283.61 337.457 284.094C338.308 284.579 339.316 284.709 340.262 284.457C341.197 284.179 341.988 283.551 342.471 282.703C342.953 281.856 343.089 280.854 342.85 279.909C340.816 268.584 343.996 255.807 354.935 250.385C360.14 247.968 365.837 246.795 371.573 246.959C376.822 247.022 382.111 248.207 385.635 252.352C388.726 255.981 393.933 250.729 390.865 247.124L390.85 247.118Z" fill="#211715"/>
<path d="M403.508 281.321C405.013 274.896 404.831 268.191 402.979 261.856C401.306 256.564 397.841 252.02 393.181 249.004C392.762 248.759 392.298 248.599 391.817 248.533C391.336 248.467 390.847 248.496 390.377 248.62C389.907 248.743 389.466 248.957 389.079 249.251C388.692 249.544 388.367 249.911 388.122 250.331C387.877 250.75 387.717 251.213 387.651 251.694C387.585 252.176 387.614 252.665 387.737 253.135C387.861 253.605 388.075 254.045 388.369 254.432C388.662 254.819 389.029 255.144 389.448 255.39C389.843 255.656 390.232 255.928 390.615 256.205C390.8 256.342 391.007 256.519 390.706 256.273C390.89 256.421 391.075 256.571 391.247 256.724C392.022 257.388 392.735 258.12 393.377 258.913C393.76 259.394 393.127 258.543 393.484 259.07C393.63 259.285 393.778 259.499 393.919 259.717C394.214 260.18 394.486 260.655 394.739 261.141C395.254 262.137 395.671 263.18 395.984 264.256C397.373 269.178 397.508 274.369 396.376 279.356C396.139 280.302 396.276 281.302 396.758 282.149C397.24 282.996 398.03 283.624 398.964 283.904C399.91 284.154 400.916 284.024 401.767 283.54C402.617 283.056 403.244 282.257 403.512 281.316L403.508 281.321Z" fill="#211715"/>
</g>
<defs>
<clipPath id="clip0_19_76">
<rect width="800" height="800" fill="white"/>
</clipPath>
</defs>
</svg>
